<svg xmlns="http://www.w3.org/2000/svg" width="230" height="65">
  <g>
    <circle fill="#be69e4" cx="25.3" cy="4.3" id="svg_3" r="4"/>
    <circle fill="#be69e4" cx="12.5" cy="13.7" id="svg_3" r="4"/>
    <circle fill="#be69e4" cx="4" cy="25" id="svg_3" r="4"/>
    <circle fill="#be69e4" cx="4" cy="41" id="svg_3" r="4"/>
    <circle fill="#be69e4" cx="11" cy="54" id="svg_3" r="3.7"/>
    <circle fill="#be69e4" cx="26" cy="62" id="svg_3" r="3.3"/>
    <circle fill="#be69e4" cx="43" cy="62" id="svg_3" r="3.1"/>
    <circle fill="#be69e4" cx="56" cy="55" id="svg_3" r="3"/>
    <path d="M 41 6 A 12 12 0 0 1 41 30" fill="transparent" stroke="#be69e4" stroke-width="7"/>
    <circle fill="#be69e4" cx="40.5" cy="6" id="svg_3" r="3.5"/>
    <rect x="22.3" y="26.5" width="22.75" height="7" rx="3.5" fill="#be69e4"/>
    <rect x="22.3" y="12.5" width="7" height="20" rx="3.5" fill="#be69e4"/>
    <path fill="#be69e4" d="M170.637 19.155h6.24q2.342 0 4.091.391a11.08 11.08 0 0 1 1.015.277 6.778 6.778 0 0 1 1.574.733 5.204 5.204 0 0 1 1.511 1.464 5.487 5.487 0 0 1 .727 1.606q.204.723.274 1.584a11.62 11.62 0 0 1 .036.941q0 1.899-.674 3.273a5.58 5.58 0 0 1-.037.075 6.301 6.301 0 0 1-1.96 2.294 9.033 9.033 0 0 1-2.138 1.126 10.74 10.74 0 0 1-.745.245l7.049 11.69h-2.145l-6.627-11.18h-6.381v11.18h-1.81V19.155zm-58.658 25.699h-1.899l-3.498-9.088H95.789l-3.568 9.088h-1.846l10.107-25.787h1.653l9.844 25.787zm98.033 0h-1.899l-3.498-9.088h-10.793l-3.568 9.088h-1.846l10.108-25.787h1.652l9.844 25.787zm-72.774-12.885q0 2.936-.72 5.361a12.64 12.64 0 0 1-1.146 2.709 10.831 10.831 0 0 1-1.017 1.475 9.725 9.725 0 0 1-3.594 2.725 10.708 10.708 0 0 1-2.648.781 14.508 14.508 0 0 1-2.371.185 14.531 14.531 0 0 1-2.524-.209 10.706 10.706 0 0 1-2.521-.757q-2.162-.967-3.594-2.734a11.482 11.482 0 0 1-1.749-3.025 13.891 13.891 0 0 1-.405-1.176 17.387 17.387 0 0 1-.619-3.239 21.773 21.773 0 0 1-.101-2.131 19.54 19.54 0 0 1 .291-3.454 14.73 14.73 0 0 1 1.036-3.419 10.715 10.715 0 0 1 2.474-3.519 10.279 10.279 0 0 1 1.446-1.122q2.584-1.664 6.382-1.67a17.275 17.275 0 0 1 .025 0q3.656 0 6.196 1.591a9.816 9.816 0 0 1 3.582 3.987 12.078 12.078 0 0 1 .268.566 14.567 14.567 0 0 1 .982 3.25q.327 1.768.327 3.825zm27.51 0q0 2.936-.721 5.361a12.64 12.64 0 0 1-1.146 2.709 10.831 10.831 0 0 1-1.016 1.475 9.725 9.725 0 0 1-3.594 2.725 10.708 10.708 0 0 1-2.648.781 14.508 14.508 0 0 1-2.371.185 14.531 14.531 0 0 1-2.524-.209 10.706 10.706 0 0 1-2.521-.757q-2.162-.967-3.595-2.734a11.482 11.482 0 0 1-1.748-3.025 13.891 13.891 0 0 1-.405-1.176 17.387 17.387 0 0 1-.619-3.239 21.773 21.773 0 0 1-.102-2.131 19.54 19.54 0 0 1 .292-3.454 14.73 14.73 0 0 1 1.035-3.419 10.715 10.715 0 0 1 2.475-3.519 10.279 10.279 0 0 1 1.445-1.122q2.585-1.664 6.383-1.67a17.275 17.275 0 0 1 .025 0q3.656 0 6.196 1.591a9.816 9.816 0 0 1 3.582 3.987 12.078 12.078 0 0 1 .267.566 14.567 14.567 0 0 1 .983 3.25q.327 1.768.327 3.825zm-48.621-.018a19.459 19.459 0 0 0 .228 3.051 14.335 14.335 0 0 0 .809 3.023 9.313 9.313 0 0 0 1.543 2.623 8.312 8.312 0 0 0 1.639 1.481 8.072 8.072 0 0 0 2.844 1.211q1.11.249 2.397.265a14.284 14.284 0 0 0 .173.001 12.325 12.325 0 0 0 2.313-.205q1.398-.268 2.515-.883a7.231 7.231 0 0 0 .603-.371 8.39 8.39 0 0 0 2.875-3.442 10.408 10.408 0 0 0 .272-.636 14.425 14.425 0 0 0 .795-3.026q.217-1.397.224-2.972a23.631 23.631 0 0 0 0-.102 20.315 20.315 0 0 0-.252-3.309q-.526-3.179-2.147-5.234a7.748 7.748 0 0 0-4.72-2.82 11.904 11.904 0 0 0-2.355-.221q-3.037 0-5.121 1.245a7.509 7.509 0 0 0-.337.214 8.633 8.633 0 0 0-3.059 3.656 10.558 10.558 0 0 0-.176.405 13.85 13.85 0 0 0-.845 3.097 18.98 18.98 0 0 0-.218 2.949zm27.51 0a19.459 19.459 0 0 0 .228 3.051 14.335 14.335 0 0 0 .809 3.023 9.313 9.313 0 0 0 1.543 2.623 8.312 8.312 0 0 0 1.638 1.481 8.072 8.072 0 0 0 2.845 1.211q1.11.249 2.397.265a14.284 14.284 0 0 0 .173.001 12.325 12.325 0 0 0 2.312-.205q1.398-.268 2.516-.883a7.231 7.231 0 0 0 .603-.371 8.39 8.39 0 0 0 2.874-3.442 10.408 10.408 0 0 0 .273-.636 14.425 14.425 0 0 0 .795-3.026q.217-1.397.224-2.972a23.631 23.631 0 0 0 0-.102 20.315 20.315 0 0 0-.252-3.309q-.526-3.179-2.147-5.234a7.748 7.748 0 0 0-4.72-2.82 11.904 11.904 0 0 0-2.355-.221q-3.037 0-5.121 1.245a7.509 7.509 0 0 0-.337.214 8.633 8.633 0 0 0-3.06 3.656 10.558 10.558 0 0 0-.175.405 13.85 13.85 0 0 0-.845 3.097 18.98 18.98 0 0 0-.218 2.949zm33.064-11.197h-4.254v11.32h5.116a10.592 10.592 0 0 0 1.916-.162q1.81-.334 2.997-1.349a4.896 4.896 0 0 0 1.61-2.778 7.436 7.436 0 0 0 .156-1.564 8.119 8.119 0 0 0-.131-1.517q-.162-.849-.523-1.492a3.539 3.539 0 0 0-1.209-1.28 6.209 6.209 0 0 0-1.512-.671q-1.496-.456-3.672-.502a23.484 23.484 0 0 0-.494-.005zM96.404 34.131h9.598l-3.551-9.633a21.658 21.658 0 0 1-.074-.197q-.101-.272-.227-.632a62.998 62.998 0 0 1-.042-.12 125.888 125.888 0 0 1-.206-.598 148.675 148.675 0 0 1-.215-.632 61.558 61.558 0 0 0-.218-.633 52.485 52.485 0 0 0-.213-.598 24.805 24.805 0 0 1-.387 1.231q-.211.615-.404 1.186a31.48 31.48 0 0 1-.189.543 23.045 23.045 0 0 1-.18.485l-3.692 9.598zm98.034 0h9.597l-3.551-9.633a21.658 21.658 0 0 1-.074-.197q-.1-.272-.226-.632a62.998 62.998 0 0 1-.042-.12 125.888 125.888 0 0 1-.207-.598 148.675 148.675 0 0 1-.215-.632 61.558 61.558 0 0 0-.218-.633 52.485 52.485 0 0 0-.213-.598 24.805 24.805 0 0 1-.387 1.231q-.211.615-.404 1.186a31.48 31.48 0 0 1-.189.543 23.045 23.045 0 0 1-.18.485l-3.691 9.598z"/>
  </g>
</svg>