<?xml version="1.0" encoding="utf-8"?>
<!-- Generator: Adobe Illustrator 26.2.1, SVG Export Plug-In . SVG Version: 6.00 Build 0)  -->
<svg version="1.1" id="ccs" xmlns="http://www.w3.org/2000/svg" xmlns:xlink="http://www.w3.org/1999/xlink" x="0px" y="0px"
	 viewBox="0 0 139.3 20.8" style="enable-background:new 0 0 139.3 20.8;" xml:space="preserve">
<style type="text/css">
	.st0{opacity:7.000000e-02;enable-background:new    ;}
	.st1{fill:#006FCF;}
	.st2{fill:#FFFFFF;}
	.st3{fill:#EDA024;}
	.st4{fill:#494949;}
	.st5{fill:#EB001B;}
	.st6{fill:#F79E1B;}
	.st7{fill:#FF5F00;}
	.st8{fill:#142688;}
</style>
<g id="Group_14" transform="translate(72.809)">
	<path id="Path_7" class="st0" d="M28.5,0H0.7c-1.4,0-2.6,1.1-2.6,2.5v0.1v15.6c0,1.4,1.2,2.6,2.6,2.6h27.8c1.4,0,2.6-1.1,2.6-2.5
		v-0.1V2.6C31.1,1.2,29.9,0,28.5,0z"/>
	<path id="Path_8" class="st1" d="M28.5,0.9c1,0,1.7,0.8,1.7,1.7v15.6c0,1-0.8,1.7-1.7,1.7H0.7c-1,0-1.7-0.8-1.7-1.7V2.6
		c0-1,0.8-1.7,1.7-1.7L28.5,0.9"/>
	<path id="Path_9" class="st2" d="M5.9,8.9l0.7,1.6H5.3L5.9,8.9z M19.9,8.9h-2.6v0.7h2.5v1h-2.5v0.8h2.6V12l1.8-1.9l-1.8-1.9V8.9z
		 M7.6,6.9h3.5l0.8,1.6l0.7-1.6h9l1,1l1-1h4.2l-3,3.4l3,3.3h-4.2l-1-1l-1,1H6.9l-0.4-1h-1l-0.4,1H1.7l2.8-6.7
		C4.5,6.9,7.6,6.9,7.6,6.9z M15.2,7.9h-1.9l-1.3,3l-1.4-3h-2v4.2L6.8,7.9H5.1L3,12.7h1.4l0.4-1h2.3l0.4,1h2.3V9.3l1.6,3.4h1l1.5-3.4
		v3.4h1.3V7.9L15.2,7.9z M23.3,10.3l2.2-2.4h-1.6l-1.4,1.5l-1.3-1.5h-5.1v4.8h5l1.4-1.5l1.3,1.5h1.6L23.3,10.3z"/>
</g>
<g id="Group_15" transform="translate(109.518)">
	<path id="Path_10" class="st0" d="M27.2,0H-0.6C-2,0-3.2,1.1-3.2,2.5v0.1v15.6c0,1.4,1.2,2.6,2.6,2.6h27.8c1.4,0,2.6-1.1,2.6-2.5
		v-0.1V2.6C29.7,1.2,28.6,0,27.2,0z"/>
	<path id="Path_11" class="st2" d="M27.2,0.9c1,0,1.7,0.8,1.7,1.7v15.6c0,1-0.8,1.7-1.7,1.7H-0.6c-1,0-1.7-0.8-1.7-1.7V2.6
		c0-1,0.8-1.7,1.7-1.7L27.2,0.9"/>
	<path id="Path_12" class="st3" d="M28.9,14.8v3.5c0,1-0.8,1.7-1.7,1.7H17C23.8,18.4,27.3,16,28.9,14.8z"/>
	<path id="Path_13" class="st4" d="M4.6,9.5H22v1.7H4.6V9.5z"/>
	<path id="Path_14" class="st3" d="M15.9,10.4c0,1.4-1.1,2.6-2.5,2.6h-0.1c-1.4,0-2.6-1.2-2.6-2.6s1.2-2.6,2.6-2.6
		C14.7,7.8,15.8,8.9,15.9,10.4C15.9,10.3,15.9,10.4,15.9,10.4z"/>
</g>
<g id="Group_12" transform="translate(36.188)">
	<path id="Path_1" class="st0" d="M29.7,0H1.9C0.5,0-0.7,1.1-0.7,2.5v0.1v15.6c0,1.4,1.2,2.6,2.6,2.6h27.8c1.4,0,2.6-1.1,2.6-2.5
		v-0.1V2.6C32.3,1.2,31.1,0,29.7,0z"/>
	<path id="Path_2" class="st2" d="M29.7,0.9c1,0,1.7,0.8,1.7,1.7v15.6c0,1-0.8,1.7-1.7,1.7H1.9c-1,0-1.7-0.8-1.7-1.7V2.6
		c0-1,0.8-1.7,1.7-1.7L29.7,0.9"/>
	<circle id="Ellipse_3" class="st5" cx="12.3" cy="10.4" r="6.1"/>
	<circle id="Ellipse_4" class="st6" cx="19.3" cy="10.4" r="6.1"/>
	<path id="Path_3" class="st7" d="M18.4,10.4c0-2-1-3.8-2.6-4.9c-1.6,1.1-2.6,3-2.6,4.9c0,2,1,3.8,2.6,4.9
		C17.4,14.3,18.4,12.4,18.4,10.4z"/>
</g>
<g id="Group_13">
	<path id="Path_4" class="st0" d="M30.4,0H2.6C1.2,0,0,1.1,0,2.5v0.1v15.6c0,1.4,1.2,2.6,2.6,2.6h27.8c1.4,0,2.6-1.1,2.6-2.5v-0.1
		V2.6C33,1.2,31.8,0,30.4,0z"/>
	<path id="Path_5" class="st2" d="M30.4,0.9c1,0,1.7,0.8,1.7,1.7v15.6c0,1-0.8,1.7-1.7,1.7H2.6c-1,0-1.7-0.8-1.7-1.7V2.6
		c0-1,0.8-1.7,1.7-1.7L30.4,0.9"/>
	<path id="Path_6" class="st8" d="M24.6,8.8h-0.3c-0.4,0.8-0.7,1.7-0.9,2.6H25C25,10.5,24.8,9.6,24.6,8.8z M27.1,13.9h-1.5
		c-0.1,0-0.1,0-0.2-0.1L25.3,13l-0.1-0.2h-2.1c-0.1,0-0.2,0-0.2,0.2l-0.3,0.8c0,0,0,0.1-0.1,0.1l0,0h-1.8l0.2-0.4l2.5-5.9
		c0-0.4,0.3-0.6,0.7-0.6h1.3c0.1,0,0.2,0,0.2,0.2l1.2,5.6C26.9,13.1,27,13.4,27.1,13.9C27.1,13.8,27.1,13.8,27.1,13.9z M15.4,13.6
		l0.3-1.6c0.1,0,0.1,0,0.2,0.1c0.6,0.3,1.2,0.4,1.8,0.3c0.2,0,0.4-0.1,0.6-0.2c0.4-0.2,0.4-0.6,0.1-1c-0.2-0.2-0.5-0.3-0.7-0.4
		c-0.3-0.2-0.7-0.4-1-0.6c-0.8-0.6-0.9-1.7-0.3-2.5c0.1-0.1,0.1-0.1,0.2-0.2c0.5-0.3,0.8-0.7,1.5-0.7c0.9,0,1.8,0,2.7,0.2H21
		c-0.1,0.5-0.2,1-0.3,1.5c-0.4-0.2-0.8-0.3-1.3-0.3c-0.3,0-0.5,0-0.8,0.1c-0.1,0-0.3,0.1-0.3,0.2c-0.2,0.2-0.2,0.4,0,0.6l0,0
		l0.4,0.3c0.3,0.2,0.6,0.3,1,0.5c0.5,0.3,0.8,0.7,1,1.2c0.2,0.8-0.1,1.6-0.8,2c-0.3,0.3-0.8,0.5-1.2,0.5c-1,0.1-2,0-3-0.2
		C15.5,13.7,15.5,13.7,15.4,13.6z M12.4,13.9c0-0.3,0.1-0.6,0.2-0.9c0.4-1.9,0.9-3.9,1.2-5.8c0.1-0.2,0.1-0.3,0.3-0.3h1.6
		c-0.2,0.9-0.4,1.9-0.6,2.8c-0.3,1.3-0.5,2.6-0.9,3.9c0,0.2-0.1,0.2-0.3,0.2 M4.3,7.1c0-0.1,0.2-0.2,0.3-0.2h3
		c0.4,0,0.8,0.3,0.9,0.7l0.8,3.8c0,0.1,0,0.1,0.1,0.2c0,0,0-0.1,0.1-0.1l0,0l1.8-4.4c-0.1-0.1,0-0.2,0.1-0.2h1.8
		c0,0.1,0,0.1-0.1,0.2l-2.7,6.3c-0.1,0.2-0.1,0.3-0.2,0.3s-0.3,0-0.4,0H8.4c-0.1,0-0.2,0-0.2-0.2L6.9,8.2C6.6,8,6.4,7.8,6.1,7.7
		C5.6,7.5,5,7.3,4.4,7.3L4.3,7.1z"/>
</g>
</svg>
