<svg id="Camada_1" data-name="Camada 1" xmlns="http://www.w3.org/2000/svg" viewBox="0 0 100 100"><defs><style>.cls-1{fill:#5d5d5d;}.cls-2{fill:#050b0f;}.cls-3{fill:#fff;}</style></defs><path class="cls-1" d="M50,98A48,48,0,1,0,2,50,48,48,0,0,0,50,98Z"/><path class="cls-2" d="M50,83A33,33,0,1,0,17,50,33,33,0,0,0,50,83Z"/><path class="cls-3" d="M21.53,16.38l4.2,6.78L24.5,24.5l-5-2.65,3,4.81L21.29,28l-7.06-3.69,1.12-1.21,5.3,3L17.32,21l1.16-1.26,5.36,2.93-3.43-5Z"/><path class="cls-3" d="M31,17.64l-2.57,1.65.37,1.51-1.36.87-1.84-8,1.51-1,6.48,5-1.37.89Zm-1-.81-2.68-2.1L28.1,18Z"/><path class="cls-3" d="M36.21,8.43l.47,1.15-1.9.76,2.41,6-1.43.58-2.41-6-1.89.76L31,10.53Z"/><path class="cls-3" d="M40,8.72l.43,1.88L42.94,10l.27,1.19-2.52.57.45,2L44,13.13l.28,1.22-4.35,1-1.7-7.5,4.35-1,.28,1.22Z"/><path class="cls-3" d="M49.29,14l-1.85-2.89-.73,0,.16,3-1.54.09L44.92,6.5l2.88-.16a3.34,3.34,0,0,1,1.53.24,2.19,2.19,0,0,1,1,.79,2.39,2.39,0,0,1,.38,1.18,2.35,2.35,0,0,1-.37,1.39,2.29,2.29,0,0,1-1.26.91l2,3Zm-2.64-4,1.29-.07a1.27,1.27,0,0,0,.91-.35,1.15,1.15,0,0,0,.27-.86,1.06,1.06,0,0,0-.36-.8,1.33,1.33,0,0,0-.95-.24l-1.28.07Z"/><path class="cls-3" d="M57.86,10.49a2.2,2.2,0,0,1-1,.75,3.4,3.4,0,0,1-1.6.13L54,11.2l-.38,2.93-1.53-.2,1-7.62,2.81.36a3.5,3.5,0,0,1,1.46.5,2.17,2.17,0,0,1,.83,1,2.41,2.41,0,0,1,.15,1.26A2.33,2.33,0,0,1,57.86,10.49ZM56.31,10a1.07,1.07,0,0,0,.41-.78c.1-.74-.27-1.16-1.1-1.27l-1.21-.16L54.13,10l1.21.15A1.33,1.33,0,0,0,56.31,10Z"/><path class="cls-3" d="M62.14,16l-.7-3.36-.69-.22-.91,2.85-1.47-.48,2.35-7.31,2.74.88a3.38,3.38,0,0,1,1.35.77,2.13,2.13,0,0,1,.64,1.09,2.25,2.25,0,0,1-.07,1.23,2.17,2.17,0,0,1-.84,1.17,2.23,2.23,0,0,1-1.5.4l.8,3.53Zm-1-4.68,1.22.39a1.27,1.27,0,0,0,1,0,1.18,1.18,0,0,0,.56-.71,1.08,1.08,0,0,0,0-.87A1.3,1.3,0,0,0,63,9.6L61.8,9.21Z"/><path class="cls-3" d="M66.32,17.33a3.83,3.83,0,0,1-.55-1.93,4,4,0,0,1,.55-2,3.87,3.87,0,0,1,1.46-1.49,3.68,3.68,0,0,1,1.94-.51,3.9,3.9,0,0,1,2,.54,4,4,0,0,1,1.47,1.43,3.75,3.75,0,0,1,.54,1.92,3.91,3.91,0,0,1-.55,2,3.83,3.83,0,0,1-1.46,1.5,3.65,3.65,0,0,1-1.93.51,3.87,3.87,0,0,1-2-.54A4,4,0,0,1,66.32,17.33Zm3.37.56a2.18,2.18,0,0,0,1.16-.37,3,3,0,0,0,.93-1,2.94,2.94,0,0,0,.41-1.31A2.13,2.13,0,0,0,71.91,14a2.25,2.25,0,0,0-.91-.87,2.33,2.33,0,0,0-1.22-.34,2.15,2.15,0,0,0-1.16.35,2.9,2.9,0,0,0-.92,1,2.82,2.82,0,0,0-.41,1.32,2.11,2.11,0,0,0,.27,1.19,2.41,2.41,0,0,0,.91.88A2.31,2.31,0,0,0,69.69,17.89Z"/><path class="cls-3" d="M73.29,21.87a3.77,3.77,0,0,1-.1-2,4.09,4.09,0,0,1,2.74-3,3.77,3.77,0,0,1,2-.07,4.07,4.07,0,0,1,1.8,1,4,4,0,0,1,1.12,1.72,3.74,3.74,0,0,1,.09,2,4,4,0,0,1-1,1.84,3.89,3.89,0,0,1-1.76,1.14,3.77,3.77,0,0,1-2,.07,4.07,4.07,0,0,1-1.8-1A3.94,3.94,0,0,1,73.29,21.87Zm3.15,1.3a2.05,2.05,0,0,0,1.22-.1,2.81,2.81,0,0,0,1.13-.79,3,3,0,0,0,.7-1.19,2.16,2.16,0,0,0,0-1.21,2.56,2.56,0,0,0-1.8-1.66,2.1,2.1,0,0,0-1.21.09,3.24,3.24,0,0,0-1.83,2,2.24,2.24,0,0,0,0,1.23,2.43,2.43,0,0,0,.69,1.06A2.32,2.32,0,0,0,76.44,23.17Z"/><path class="cls-3" d="M86.76,26.19l-1,.74-1.9-2.58-1.59,1.16,1.46,2-1,.72-1.45-2-2.61,1.92-.92-1.24L84,22.37Z"/><path class="cls-3" d="M49.9,85.2l1.2,3.4h3.6l-2.9,2.1,1.1,3.5-3-2.2L47,94.2l1.1-3.5-2.9-2.1h3.6Z"/><path class="cls-3" d="M62.1,82.9l1.1,3.4h3.6l-2.9,2.1L65,91.9l-2.9-2.1-3,2.1,1.1-3.5-2.9-2.1h3.6Z"/><path class="cls-3" d="M37.4,82.9l1.1,3.4h3.6l-2.9,2.1,1.1,3.5-2.9-2.1-2.9,2.1,1.1-3.5-2.9-2.1h3.6Z"/><path class="cls-3" d="M48.89,50a10.11,10.11,0,0,1,2.93-7.13c-.58-1-1.19-2.08-1.81-3.11-2.5,4.17-6.76,11.86-6.76,14.75a6.76,6.76,0,0,0,11.6,4.73A10.16,10.16,0,0,1,48.89,50Z"/><path class="cls-3" d="M66.93,50A7.9,7.9,0,1,0,59,57.89,7.9,7.9,0,0,0,66.93,50Zm-13.2.8,1.59-1.6,1.53,1.53,6-5,1.44,1.73-7.56,6.3Z"/><path class="cls-3" d="M57.19,60A9,9,0,0,1,41,54.51c0-5.08,9-19,9-19,.88,1.41,1.92,3,3.58,6a10.15,10.15,0,0,1,15.52,7.44h0a19.17,19.17,0,1,0,0,2.26h0A10.16,10.16,0,0,1,57.19,60Z"/></svg>