<svg id="Camada_1" data-name="Camada 1" xmlns="http://www.w3.org/2000/svg" viewBox="0 0 100 100"><defs><style>.cls-1{fill:#5d5d5d;}.cls-2{fill:#050b0f;}.cls-3{fill:#fff;}</style></defs><path class="cls-1" d="M50,98A48,48,0,1,0,2,50,48,48,0,0,0,50,98Z"/><path class="cls-2" d="M50,83A33,33,0,1,0,17,50,33,33,0,0,0,50,83Z"/><path class="cls-3" d="M8.57,64.3l7-3,.61,1.41-3,1.29,1.3,3,3-1.29.61,1.42-7.06,3-.6-1.41,2.9-1.25-1.3-3-2.9,1.24Z"/><path class="cls-3" d="M12.92,55.81l.6,3,1.53.21.32,1.59L7.29,59.4l-.35-1.76,7-4.2L14.25,55Zm-1.13.65L8.86,58.18l3.37.46Z"/><path class="cls-3" d="M12.67,51.15l0-3.46h1.29l0,5.24H12.8l-5.22-3.4L7.6,53H6.31l0-5.24H7.45Z"/><path class="cls-3" d="M13.38,41.82l-.55,3,1.35.76-.29,1.59L6.82,43.09l.32-1.77L15.2,40l-.29,1.6ZM12.09,42l-3.36.52,3,1.67Z"/><path class="cls-3" d="M16.93,35.65l-3.41.48-.26.67L16,37.9l-.57,1.43L8.33,36.52l1.06-2.69a3.34,3.34,0,0,1,.85-1.29A2.26,2.26,0,0,1,11.37,32a2.38,2.38,0,0,1,1.23.15,2.31,2.31,0,0,1,1.11.91,2.26,2.26,0,0,1,.3,1.53L17.58,34Zm-4.75.73.47-1.2a1.27,1.27,0,0,0,.07-1,1.16,1.16,0,0,0-.67-.59,1.08,1.08,0,0,0-.88,0,1.31,1.31,0,0,0-.61.76l-.48,1.2Z"/><path class="cls-3" d="M14.57,25.15a3.29,3.29,0,0,1,1.9-.46,3.93,3.93,0,0,1,2,.68,4,4,0,0,1,1.43,1.51,3.4,3.4,0,0,1,.35,1.92,4.53,4.53,0,0,1-.76,2L18,33.1l-6.45-4.17L13,26.68A4.61,4.61,0,0,1,14.57,25.15Zm4.23,3.1a2.49,2.49,0,0,0-1.2-1.56,2.58,2.58,0,0,0-1.94-.47,2.53,2.53,0,0,0-1.58,1.21l-.59.91,4.26,2.76.59-.92A2.53,2.53,0,0,0,18.8,28.25Z"/><path class="cls-3" d="M23,25.42a3.81,3.81,0,0,1-2,0,4.12,4.12,0,0,1-2.84-2.88,3.93,3.93,0,0,1,1.09-3.75,4,4,0,0,1,1.77-1,3.77,3.77,0,0,1,2,0,3.88,3.88,0,0,1,1.79,1.07,3.94,3.94,0,0,1,1.05,1.81,3.77,3.77,0,0,1,0,2,3.89,3.89,0,0,1-1.06,1.75A4,4,0,0,1,23,25.42Zm1.45-3.09a2.21,2.21,0,0,0,0-1.22,2.93,2.93,0,0,0-.74-1.17,2.82,2.82,0,0,0-1.16-.75,2.09,2.09,0,0,0-1.21-.05,2.4,2.4,0,0,0-1.08.63,2.48,2.48,0,0,0-.66,1.08,2.12,2.12,0,0,0,0,1.22,3,3,0,0,0,.73,1.17,3,3,0,0,0,1.16.75,2.16,2.16,0,0,0,1.23.06,2.46,2.46,0,0,0,1.09-.64A2.4,2.4,0,0,0,24.44,22.33Z"/><path class="cls-3" d="M25.37,13.86l2.53,4a1.66,1.66,0,0,0,1,.79,1.54,1.54,0,0,0,1.19-.26,1.61,1.61,0,0,0,.76-1,1.68,1.68,0,0,0-.29-1.23L28,12.2l1.32-.83,2.52,4A3.08,3.08,0,0,1,32.37,17,2.67,2.67,0,0,1,32,18.47,3.55,3.55,0,0,1,30.8,19.6a3.41,3.41,0,0,1-1.5.54,2.54,2.54,0,0,1-1.48-.27,3.13,3.13,0,0,1-1.23-1.18l-2.52-4Z"/><path class="cls-3" d="M35.5,16.77a2.44,2.44,0,0,1-1.24-.37,2,2,0,0,1-.8-1L35,14.8a1.08,1.08,0,0,0,.59.58,1.21,1.21,0,0,0,.87-.05,1.27,1.27,0,0,0,.69-.55.81.81,0,0,0,0-.74.78.78,0,0,0-.4-.45,1.48,1.48,0,0,0-.61-.13,9.09,9.09,0,0,0-.91.06,10,10,0,0,1-1.29,0,2.21,2.21,0,0,1-1-.31,1.86,1.86,0,0,1-.74-1,2.19,2.19,0,0,1-.12-1.23A2.11,2.11,0,0,1,32.74,10,3.44,3.44,0,0,1,34,9.22a3,3,0,0,1,2-.17,2.16,2.16,0,0,1,1.35,1.2l-1.57.62a.92.92,0,0,0-.55-.49,1.27,1.27,0,0,0-.87.07,1.07,1.07,0,0,0-.59.48.82.82,0,0,0,0,.72.7.7,0,0,0,.37.4,1.45,1.45,0,0,0,.59.12,8.09,8.09,0,0,0,.9,0,8.46,8.46,0,0,1,1.3,0,2.17,2.17,0,0,1,1,.31,1.82,1.82,0,0,1,.74.95,2.16,2.16,0,0,1,.12,1.18,2.24,2.24,0,0,1-.56,1.13,3.3,3.3,0,0,1-1.25.83A3.78,3.78,0,0,1,35.5,16.77Z"/><path class="cls-3" d="M42.35,8.65a3.65,3.65,0,0,1,1.24-1.53,4,4,0,0,1,1.93-.71,3.91,3.91,0,0,1,2.31.43,3.41,3.41,0,0,1,1.53,1.67L47.6,8.7A1.84,1.84,0,0,0,46.78,8a2.23,2.23,0,0,0-1.13-.16,2.28,2.28,0,0,0-1.16.44,2.09,2.09,0,0,0-.71,1,2.9,2.9,0,0,0-.16,1.37,3.12,3.12,0,0,0,.43,1.3,2.22,2.22,0,0,0,.9.8,2.37,2.37,0,0,0,1.22.19,2.25,2.25,0,0,0,1.07-.39,1.93,1.93,0,0,0,.66-.91l1.76-.18a3.47,3.47,0,0,1-1.15,2,4.24,4.24,0,0,1-4.21.59,3.62,3.62,0,0,1-1.53-1.24,4,4,0,0,1-.72-2A4,4,0,0,1,42.35,8.65Z"/><path class="cls-3" d="M58.06,6.92l-.86,7.63-1.53-.17L56,11.13l-3.27-.37L52.4,14l-1.53-.18.87-7.63,1.53.18-.36,3.13,3.27.38.35-3.14Z"/><path class="cls-3" d="M61.7,9.17,61.14,11l2.47.75-.35,1.17-2.47-.75-.59,2L63,15l-.37,1.2-4.26-1.29,2.22-7.36,4.27,1.29L64.48,10Z"/><path class="cls-3" d="M74.69,13.68,71,20.42l-1.35-.74,2.4-4.38-4.2,3.39-1-.56.58-5.38L65,17.14l-1.35-.74,3.69-6.74,1.53.84-.6,6.18,4.89-3.83Z"/><path class="cls-3" d="M77.85,16.29l-4.79,6-1.2-1,4.78-6Z"/><path class="cls-3" d="M78.53,19.11a3.6,3.6,0,0,1,2,.08,4,4,0,0,1,1.71,1.12,4,4,0,0,1,1,2.1,3.48,3.48,0,0,1-.43,2.24l-1.2-1.31a1.75,1.75,0,0,0,.1-1.1,2.19,2.19,0,0,0-.54-1,2.25,2.25,0,0,0-1-.66,2.08,2.08,0,0,0-1.21,0,2.84,2.84,0,0,0-1.18.69A3,3,0,0,0,77,22.39a2.11,2.11,0,0,0-.11,1.21,2.32,2.32,0,0,0,.58,1.09,2.18,2.18,0,0,0,1,.62,1.83,1.83,0,0,0,1.11,0l1.2,1.3a3.36,3.36,0,0,1-2.26.25,3.86,3.86,0,0,1-2-1.21,3.9,3.9,0,0,1-1-1.8,3.66,3.66,0,0,1,.07-2,4.31,4.31,0,0,1,3-2.75Z"/><path class="cls-3" d="M83.11,32.34l-1.55-2.63-1.51.3-.82-1.4,8-1.5.91,1.54-5.24,6.27-.82-1.4Zm.85-1,2.21-2.58-3.33.66Z"/><path class="cls-3" d="M84.79,36.67,85.68,39l-1.14.43-1.44-3.8,7.19-2.72.54,1.44Z"/><path class="cls-3" d="M90.21,43.81l-1.27.27-1-4.57,1.27-.26Z"/><path class="cls-3" d="M93.79,50.57l-1.25,0-.14-3.19-2,.09L90.54,50,89.33,50l-.12-2.45L86,47.72l-.07-1.54,7.67-.35Z"/><path class="cls-3" d="M85.61,55.65l3.18-1.31.09-.72-3-.37.19-1.53,7.62,1-.36,2.87a3.32,3.32,0,0,1-.5,1.46,2.17,2.17,0,0,1-1,.83,2.28,2.28,0,0,1-1.22.16,2.2,2.2,0,0,1-1.3-.61A2.25,2.25,0,0,1,88.7,56l-3.32,1.44ZM90,53.76,89.86,55a1.25,1.25,0,0,0,.19,1,1.14,1.14,0,0,0,.79.42,1.11,1.11,0,0,0,.86-.21,1.33,1.33,0,0,0,.4-.89L92.26,54Z"/><path class="cls-3" d="M90.82,61.72,89,61.17l-.75,2.47-1.17-.36.75-2.47-2-.59L85,63l-1.21-.36,1.3-4.27,7.36,2.23-1.3,4.27L90,64.51Z"/><path class="cls-3" d="M88.53,67.87,86.8,67l-1.12,2.33-1.1-.53L85.7,66.5l-1.84-.88L82.6,68.25l-1.13-.54,1.93-4L90.33,67,88.4,71l-1.13-.54Z"/><path class="cls-3" d="M49.9,85.2l1.2,3.4h3.6l-2.9,2.1,1.1,3.5-3-2.2L47,94.2l1.1-3.5-2.9-2.1h3.6Z"/><path class="cls-3" d="M62.1,82.9l1.1,3.4h3.6l-2.9,2.1L65,91.9l-2.9-2.1-3,2.1,1.1-3.5-2.9-2.1h3.6Z"/><path class="cls-3" d="M37.4,82.9l1.1,3.4h3.6l-2.9,2.1,1.1,3.5-2.9-2.1-2.9,2.1,1.1-3.5-2.9-2.1h3.6Z"/><path class="cls-3" d="M50,45.6a3.55,3.55,0,0,0-3-1,3.69,3.69,0,0,0-2.38,1.36,3.75,3.75,0,0,0-.78,2.63c.24,3.84,3.63,6.64,5.08,7.66h0a1.8,1.8,0,0,0,1,.33,1.86,1.86,0,0,0,1-.33c1.44-1,4.87-3.83,5.07-7.67a3.7,3.7,0,0,0-3.15-4,3.62,3.62,0,0,0-3,1.07Zm4.65,2.9c-.21,3.22-3.19,5.66-4.43,6.56a.3.3,0,0,1-.36,0c-1.28-.9-4.26-3.34-4.43-6.56a2.17,2.17,0,0,1,.43-1.61A2.22,2.22,0,0,1,47.28,46h.24a2.09,2.09,0,0,1,1.65.8,1.15,1.15,0,0,0,1.76,0,2.12,2.12,0,0,1,1.89-.79,2.2,2.2,0,0,1,1.39.85,2.26,2.26,0,0,1,.43,1.57Z"/><path class="cls-3" d="M65.67,53.72a.74.74,0,0,0-1.18.89c3.35,4.43,4.75,8.26,3.65,10a2.57,2.57,0,0,1-1.83,1c-2.06.34-5.24-.5-8.85-2.22a15,15,0,0,0,2.71-2.12,13.95,13.95,0,0,0,4-9.94v-.87h0a2.32,2.32,0,0,0,.47-2.67c4.64-5.69,6.36-10.4,4.73-13s-5.91-2.37-11.86.29a.73.73,0,0,0-.49,1,.74.74,0,0,0,1.06.34c5.07-2.26,8.9-2.59,10-.85s-.57,6.2-4.49,11.08a2.32,2.32,0,0,0-1.2-.34,2.47,2.47,0,0,0-1.71.71,2.41,2.41,0,0,0-.23,3.15,69.13,69.13,0,0,1-6.64,6c-.66.52-1.33,1-2,1.52a.74.74,0,0,0,.44,1.33.77.77,0,0,0,.44-.14c.67-.5,1.35-1,2-1.55h0a71,71,0,0,0,7-6.34,3.09,3.09,0,0,0,.74.12h.28v.17a12.48,12.48,0,0,1-3.64,8.91,12.63,12.63,0,0,1-3.26,2.36,62.53,62.53,0,0,1-9.73-6.39,65.56,65.56,0,0,1-8.92-8.47.69.69,0,0,0-.11-.13c-4.61-5.42-6.53-10.06-5.27-12a3.19,3.19,0,0,1,2.78-1.12,2.07,2.07,0,0,0,1.95,1.34,2,2,0,0,0,1.59-.73,29.85,29.85,0,0,1,4.36,1.66L38.1,38h0a2.4,2.4,0,0,0-1.22.75A2.45,2.45,0,0,0,36.32,40c0,.2-.16,2.59-.3,5.16a.75.75,0,0,0,.2.55.78.78,0,0,0,.54.23.75.75,0,0,0,.74-.74c.14-2.68.28-5,.3-5.17h0a.87.87,0,0,1,.67-.77l10.24-2.53a5.09,5.09,0,0,1,2.57,0l10.21,2.64h0a.87.87,0,0,1,.67.77c0,.16.13,2,.25,4.15h0a.75.75,0,0,0,.24.51.76.76,0,0,0,.54.19.8.8,0,0,0,.51-.25.71.71,0,0,0,.18-.54c-.11-2.09-.23-4-.25-4.19a2.31,2.31,0,0,0-.56-1.31A2.35,2.35,0,0,0,61.86,38L51.65,35.27a6.86,6.86,0,0,0-3.31,0l-3.63.94h0a34.82,34.82,0,0,0-6.06-2.5,2,2,0,0,0-.86-1.63,2.07,2.07,0,0,0-3.16,1c-2.35,0-3.49,1-4,1.81-1.85,2.9.74,8.19,5.28,13.59-.06,1.38-.1,2.36-.11,2.91a14,14,0,0,0,6,11.61.7.7,0,0,0,.42.13.74.74,0,0,0,.42-1.34,12.56,12.56,0,0,1-5.4-10.38c0-.31,0-.74,0-1.33a67.73,67.73,0,0,0,7.94,7.39c1.14.9,2.29,1.75,3.44,2.55a49.61,49.61,0,0,1-7.3,4,2.75,2.75,0,0,0-5,1.58c-1.55.27-3.69.35-4.53-1-1.12-1.75.33-5.64,3.78-10.15h0a.78.78,0,0,0,.27-.58.76.76,0,0,0-.29-.58.75.75,0,0,0-1.12.27c-4,5.25-5.41,9.45-3.88,11.85.57.89,1.71,1.8,4,1.8a11.64,11.64,0,0,0,2.13-.2,2.74,2.74,0,0,0,4.11.65,2.72,2.72,0,0,0,1-2.07.74.74,0,0,0,0-.21c.74-.33,1.54-.69,2.33-1.09h0l.1.07a14.38,14.38,0,0,0,11.48-.07c3.69,1.86,7.07,2.95,9.6,2.95a6.93,6.93,0,0,0,1.2-.09,3.92,3.92,0,0,0,2.81-1.7c1.49-2.4.17-6.56-3.73-11.73ZM61.5,48.79h0a1,1,0,1,1,.94.94.94.94,0,0,1-.94-.92ZM36.58,33.2a.61.61,0,1,1-.24,1.17.61.61,0,0,1-.37-.58.6.6,0,0,1,.18-.42.59.59,0,0,1,.43-.17Zm2.56,33.67a1.27,1.27,0,0,1-.92-.36,1.25,1.25,0,0,1-.39-.91,1.29,1.29,0,1,1,2.57,0,1.31,1.31,0,0,1-.37.9,1.34,1.34,0,0,1-.89.38ZM50,64.06a12.75,12.75,0,0,1-4.06-.67c1.33-.74,2.7-1.57,4.07-2.48,1.38.92,2.74,1.74,4.07,2.48a13.11,13.11,0,0,1-4.08.67Z"/><path class="cls-3" d="M67,48.14a.67.67,0,1,1-.67-.68.67.67,0,0,1,.67.68"/><path class="cls-3" d="M41.16,32.46a.68.68,0,1,1-.67-.67.67.67,0,0,1,.67.67"/><path class="cls-3" d="M64.47,63.91a.68.68,0,1,1-.67-.67.67.67,0,0,1,.67.67"/><path class="cls-3" d="M35.23,63.72a.67.67,0,1,1-.67-.67.67.67,0,0,1,.67.67"/><path class="cls-3" d="M66.15,36.16a1,1,0,0,0-.62-.94,1,1,0,0,0-1.1.22,1,1,0,1,0,1.72.72Z"/><path class="cls-3" d="M57.59,67a1.11,1.11,0,1,1-1.11-1.11A1.11,1.11,0,0,1,57.59,67"/></svg>