<svg id="Camada_1" data-name="Camada 1" xmlns="http://www.w3.org/2000/svg" viewBox="0 0 100 100"><defs><style>.cls-1{fill:#5d5d5d;}.cls-2{fill:#050b0f;}.cls-3{fill:#fff;}</style></defs><path class="cls-1" d="M50,98A48,48,0,1,0,2,50,48,48,0,0,0,50,98Z"/><path class="cls-2" d="M50,83A33,33,0,1,0,17,50,33,33,0,0,0,50,83Z"/><path class="cls-3" d="M49.9,85.2l1.2,3.4h3.6l-2.9,2.1,1.1,3.5-3-2.2L47,94.2l1.1-3.5-2.9-2.1h3.6Z"/><path class="cls-3" d="M62.1,82.9l1.1,3.4h3.6l-2.9,2.1L65,91.9l-2.9-2.1-3,2.1,1.1-3.5-2.9-2.1h3.6Z"/><path class="cls-3" d="M37.4,82.9l1.1,3.4h3.6l-2.9,2.1,1.1,3.5-2.9-2.1-2.9,2.1,1.1-3.5-2.9-2.1h3.6Z"/><path class="cls-3" d="M50,29c2.62,0,4.75,2.88,7.08,3.87s6,.44,7.73,2.32,1.32,5.31,2.32,7.73S71,47.38,71,50s-2.88,4.75-3.87,7.08-.44,6-2.32,7.73-5.31,1.34-7.73,2.32S52.62,71,50,71s-4.75-2.88-7.08-3.87-6-.44-7.73-2.32-1.34-5.31-2.32-7.73S29,52.62,29,50s2.88-4.75,3.87-7.08.44-6,2.32-7.73,5.31-1.34,7.73-2.32S47.38,29,50,29Zm0,6.63A14.37,14.37,0,1,0,64.37,50h0A14.43,14.43,0,0,0,50,35.63Zm6.67,8L58.08,45a1.11,1.11,0,0,1,0,1.32l-8.89,9.9a1.82,1.82,0,0,1-1.4.61,2,2,0,0,1-1.41-.61L41.57,51.4a.87.87,0,0,1-.09-1.23h0l.08-.1L43,48.74a1,1,0,0,1,1.35-.06l.06.06,3.4,3.5,7.52-8.58A1,1,0,0,1,56.67,43.64Z"/><path class="cls-3" d="M13.82,52.31a2.36,2.36,0,0,1-.77,1,2.05,2.05,0,0,1-1.21.42l0-1.65a1.1,1.1,0,0,0,.74-.35,1.19,1.19,0,0,0,.25-.84,1.27,1.27,0,0,0-.28-.84.84.84,0,0,0-.68-.29.77.77,0,0,0-.56.22,1.59,1.59,0,0,0-.33.53,8.9,8.9,0,0,0-.26.87,8.92,8.92,0,0,1-.4,1.23,2.18,2.18,0,0,1-.63.82,1.9,1.9,0,0,1-1.15.37,2.11,2.11,0,0,1-1.2-.31,2.18,2.18,0,0,1-.8-.94,3.39,3.39,0,0,1-.3-1.4,3,3,0,0,1,.52-1.94,2.16,2.16,0,0,1,1.59-.87l0,1.7a.89.89,0,0,0-.65.35,1.24,1.24,0,0,0-.24.84,1.1,1.1,0,0,0,.25.71.82.82,0,0,0,.68.25A.66.66,0,0,0,8.91,52a1.41,1.41,0,0,0,.31-.52,8.35,8.35,0,0,0,.27-.86A9.76,9.76,0,0,1,9.9,49.4a2.14,2.14,0,0,1,.64-.83,1.79,1.79,0,0,1,1.14-.37,2.16,2.16,0,0,1,1.16.29,2.23,2.23,0,0,1,.86.91,3.11,3.11,0,0,1,.35,1.45A3.62,3.62,0,0,1,13.82,52.31Z"/><path class="cls-3" d="M7.86,44.68l1.9.26.36-2.56,1.21.17L11,45.12l2,.28.4-2.89,1.24.18L14,47.1,6.4,46,7,41.62l1.24.17Z"/><path class="cls-3" d="M9.25,39.62a3.77,3.77,0,0,1-.87-1.78,4.2,4.2,0,0,1,1.52-4,3.45,3.45,0,0,1,2.17-.69l-.57,1.68a1.81,1.81,0,0,0-1,.43,2.15,2.15,0,0,0-.61,1,2.17,2.17,0,0,0-.09,1.23,2.09,2.09,0,0,0,.57,1.06,3.05,3.05,0,0,0,1.18.71,3,3,0,0,0,1.36.15,2.15,2.15,0,0,0,1.1-.48,2.29,2.29,0,0,0,.69-1,2.21,2.21,0,0,0,.09-1.13,1.87,1.87,0,0,0-.55-1l.57-1.68A3.42,3.42,0,0,1,16.08,36,3.88,3.88,0,0,1,16,38.34a4,4,0,0,1-1.12,1.71,3.72,3.72,0,0,1-1.76.88A4,4,0,0,1,11,40.76,4.14,4.14,0,0,1,9.25,39.62Z"/><path class="cls-3" d="M11.75,28.78l4.07,2.46a1.68,1.68,0,0,0,1.24.26,1.79,1.79,0,0,0,1.18-2,1.59,1.59,0,0,0-.81-1l-4.07-2.45.8-1.33,4.06,2.45a3,3,0,0,1,1.2,1.21,2.72,2.72,0,0,1,.29,1.5,3.64,3.64,0,0,1-.53,1.53,3.44,3.44,0,0,1-1.09,1.15,2.55,2.55,0,0,1-1.44.42,3.11,3.11,0,0,1-1.63-.5L11,30.1Z"/><path class="cls-3" d="M24.1,24.92l-3.35-.75-.49.54,2.22,2-1,1.14L15.75,22.7l1.94-2.13a3.26,3.26,0,0,1,1.25-.92,2.22,2.22,0,0,1,1.26-.13,2.3,2.3,0,0,1,1.09.57A2.21,2.21,0,0,1,22,21.34a2.24,2.24,0,0,1-.25,1.53l3.54.73Zm-4.7-1,.87-.95a1.29,1.29,0,0,0,.4-.9,1.1,1.1,0,0,0-.42-.79,1.07,1.07,0,0,0-.81-.33,1.35,1.35,0,0,0-.84.5l-.87,1Z"/><path class="cls-3" d="M22.39,16.1l5,5.86-1.18,1-5-5.87Z"/><path class="cls-3" d="M28.53,11.81l.68,1L27.49,14,31,19.36l-1.29.85-3.51-5.4-1.71,1.12-.68-1Z"/><path class="cls-3" d="M36.08,8.42,35.63,14l1,2.47-1.42.6-1-2.47-4.34-3.59,1.6-.68L34.35,13l.15-3.87Z"/><path class="cls-3" d="M46.59,8.69a1.87,1.87,0,0,0-.82-.63A2.2,2.2,0,0,0,44.67,8a2.35,2.35,0,0,0-1.16.46,2.19,2.19,0,0,0-.7,1,2.75,2.75,0,0,0-.12,1.35A2.84,2.84,0,0,0,43.16,12a2.12,2.12,0,0,0,1,.76,2.4,2.4,0,0,0,1.29.14,2.11,2.11,0,0,0,1.36-.65,2.22,2.22,0,0,0,.56-1.39l-2.61.35-.16-1.17,4.13-.54.17,1.33a3.56,3.56,0,0,1-.46,1.56,3.7,3.7,0,0,1-1.15,1.25,3.77,3.77,0,0,1-1.72.65,4.13,4.13,0,0,1-2.05-.24,3.65,3.65,0,0,1-1.58-1.19A4,4,0,0,1,41.12,11a4,4,0,0,1,.24-2.08A3.61,3.61,0,0,1,42.57,7.3a4.07,4.07,0,0,1,1.92-.76,4,4,0,0,1,2.31.33,3.28,3.28,0,0,1,1.55,1.59Z"/><path class="cls-3" d="M52.21,6.31l-.41,4.74a1.62,1.62,0,0,0,.31,1.22,1.49,1.49,0,0,0,1.1.51,1.58,1.58,0,0,0,1.19-.31,1.63,1.63,0,0,0,.5-1.16l.41-4.73,1.54.13-.4,4.72a3.1,3.1,0,0,1-.56,1.62,2.68,2.68,0,0,1-1.22.91,3.52,3.52,0,0,1-1.6.21,3.57,3.57,0,0,1-1.52-.47,2.6,2.6,0,0,1-1-1.11,3.12,3.12,0,0,1-.26-1.68l.4-4.73Z"/><path class="cls-3" d="M62.24,14.52l-2.93-.88-.9,1.25-1.55-.46,4.85-6.57,1.72.52.43,8.16-1.56-.47Zm0-1.3-.15-3.4-2,2.76Z"/><path class="cls-3" d="M68,18.74l-.09-3.43L67.24,15l-1.41,2.64-1.36-.73,3.61-6.77,2.55,1.35a3.41,3.41,0,0,1,1.19,1,2.22,2.22,0,0,1,.43,1.19,2.35,2.35,0,0,1-.28,1.2,2.29,2.29,0,0,1-1,1,2.19,2.19,0,0,1-1.55.13l.16,3.61ZM67.78,14l1.14.6a1.24,1.24,0,0,0,1,.17,1.14,1.14,0,0,0,.66-.59,1.06,1.06,0,0,0,.12-.87,1.33,1.33,0,0,0-.69-.7L68.84,12Z"/><path class="cls-3" d="M74.93,22,72.57,20l-1.32.81-1.25-1,7-4.2,1.38,1.13-2.73,7.7-1.26-1Zm.46-1.22,1.18-3.19-2.9,1.78Z"/><path class="cls-3" d="M80.21,30.08l-1-1.2,1.94-6-4.12,3.3-1-1.21,6-4.8,1,1.2-2,6,4.12-3.29,1,1.2Z"/><path class="cls-3" d="M90,32.19l-1.11.58L88,31l-5.69,3-.72-1.36,5.7-3-1-1.81,1.1-.58Z"/><path class="cls-3" d="M90.1,36l-1.83.61L89.08,39l-1.15.39L87.11,37l-1.93.65.92,2.76-1.19.4L83.5,36.54l7.3-2.42,1.41,4.22-1.19.4Z"/><path class="cls-3" d="M91.77,42.31l-1.9.32.43,2.55-1.2.2-.43-2.55-2,.34L87.14,46l-1.23.21-.74-4.39,7.58-1.28.74,4.4-1.24.2Z"/><path class="cls-3" d="M93.21,52.23a3.28,3.28,0,0,1-1.36,1.4,3.9,3.9,0,0,1-2,.47,3.85,3.85,0,0,1-2-.52,3.41,3.41,0,0,1-1.32-1.44A4.67,4.67,0,0,1,86,50l0-2.68,7.68.09,0,2.69A4.4,4.4,0,0,1,93.21,52.23ZM88,51.85a2.54,2.54,0,0,0,1.85.68,2.61,2.61,0,0,0,1.89-.63,2.53,2.53,0,0,0,.7-1.86V49l-5.07-.07V50A2.55,2.55,0,0,0,88,51.85Z"/></svg>