<svg id="Camada_1" data-name="Camada 1" xmlns="http://www.w3.org/2000/svg" viewBox="0 0 100 100"><defs><style>.cls-1{fill:#5d5d5d;}.cls-2{fill:#050b0f;}.cls-3{fill:#fff;}</style></defs><path class="cls-1" d="M50,98A48,48,0,1,0,2,50,48,48,0,0,0,50,98Z"/><path class="cls-2" d="M50,83A33,33,0,1,0,17,50,33,33,0,0,0,50,83Z"/><path class="cls-3" d="M49.9,85.2l1.2,3.4h3.6l-2.9,2.1,1.1,3.5-3-2.2L47,94.2l1.1-3.5-2.9-2.1h3.6Z"/><path class="cls-3" d="M62.1,82.9l1.1,3.4h3.6l-2.9,2.1L65,91.9l-2.9-2.1-3,2.1,1.1-3.5-2.9-2.1h3.6Z"/><path class="cls-3" d="M37.4,82.9l1.1,3.4h3.6l-2.9,2.1,1.1,3.5-2.9-2.1-2.9,2.1,1.1-3.5-2.9-2.1h3.6Z"/><path class="cls-3" d="M42.12,42.12V44.2a1.36,1.36,0,0,0,.64-.93A1,1,0,0,0,42.12,42.12Zm-1.64-2.75a.66.66,0,0,0,.16.65l.18.12V38.79A.91.91,0,0,0,40.48,39.37Z"/><path class="cls-3" d="M41.51,33.41a8.1,8.1,0,1,0,8.1,8.1A8.12,8.12,0,0,0,41.51,33.41ZM44,43.48a2.62,2.62,0,0,1-1.91,2.1v.47a.65.65,0,1,1-1.3,0v-.4a3.2,3.2,0,0,1-1.57-.59A.65.65,0,1,1,40,44a2,2,0,0,0,.86.37V41.61a5.07,5.07,0,0,1-1-.58,2,2,0,0,1-.64-1.9,2.21,2.21,0,0,1,1.5-1.72l.12,0V37a.65.65,0,0,1,1.3,0v.33A2.22,2.22,0,0,1,43.4,38a.64.64,0,0,1-.06.91.65.65,0,0,1-.91-.06,1.09,1.09,0,0,0-.31-.19v2.1l.34.12A2.31,2.31,0,0,1,44,43.48Z"/><path class="cls-3" d="M65.78,47.81l-3.38-.57a10.09,10.09,0,0,0-1.5-1.82,7,7,0,0,1,2.53-4.15l.2-.16A1,1,0,0,0,63,39.37H60.43A6.18,6.18,0,0,0,55,42.67a9.07,9.07,0,0,0-1-.06H51.49A10,10,0,0,1,34.31,48.5a10,10,0,0,0,3,12.08v5a1,1,0,0,0,1,1h3.89a1,1,0,0,0,.92-.67l1.08-3.22h9.09l1.08,3.22a1,1,0,0,0,.92.67h3.89a1,1,0,0,0,1-1v-5a9.94,9.94,0,0,0,3-3.94L66,55.5a1,1,0,0,0,.61-.9V48.77A1,1,0,0,0,65.78,47.81Zm-7.62,2.25a1,1,0,1,1,1-1A1,1,0,0,1,58.16,50.06Z"/><path class="cls-3" d="M6.55,44.26l7.66.44-.09,1.54-3.26-.19-.19,3.28,3.26.19-.08,1.54-7.67-.44.09-1.54,3.15.18L9.61,46,6.46,45.8Z"/><path class="cls-3" d="M14.23,38.62l-.8,2.94,1.27.88L14.28,44,7.59,39.3l.47-1.72,8.15-.64-.43,1.57Zm-1.29.07-3.4.23,2.81,1.92Z"/><path class="cls-3" d="M16.91,35.16a2.37,2.37,0,0,1-1.16.56,2.08,2.08,0,0,1-1.26-.2L15.22,34a1.07,1.07,0,0,0,.82,0,1.2,1.2,0,0,0,.62-.62,1.34,1.34,0,0,0,.14-.87.83.83,0,0,0-.47-.58.77.77,0,0,0-.59-.06,1.44,1.44,0,0,0-.55.31c-.16.15-.38.37-.63.65a9.33,9.33,0,0,1-.93.9,2.19,2.19,0,0,1-.94.43A1.84,1.84,0,0,1,11.5,34a2,2,0,0,1-.91-.83,2.19,2.19,0,0,1-.27-1.2,3.5,3.5,0,0,1,.38-1.38,3.18,3.18,0,0,1,1.38-1.48,2.16,2.16,0,0,1,1.81,0l-.76,1.51a.89.89,0,0,0-.73,0,1.23,1.23,0,0,0-.6.63,1.08,1.08,0,0,0-.11.75.79.79,0,0,0,.48.54.64.64,0,0,0,.54,0,1.57,1.57,0,0,0,.53-.3c.16-.14.37-.36.64-.64a8.11,8.11,0,0,1,.93-.89,2.12,2.12,0,0,1,1-.44,1.85,1.85,0,0,1,1.18.21,2.19,2.19,0,0,1,1.22,2A3.08,3.08,0,0,1,17.8,34,3.47,3.47,0,0,1,16.91,35.16Z"/><path class="cls-3" d="M20,29.57a2.36,2.36,0,0,1-1.24.35,2.09,2.09,0,0,1-1.21-.42l1-1.32a1.05,1.05,0,0,0,.81.17,1.19,1.19,0,0,0,.71-.5,1.35,1.35,0,0,0,.3-.84.88.88,0,0,0-.36-.65.8.8,0,0,0-.58-.16,1.36,1.36,0,0,0-.59.21,8.11,8.11,0,0,0-.74.53,10,10,0,0,1-1.07.72,2.22,2.22,0,0,1-1,.26,1.91,1.91,0,0,1-1.13-.43,2,2,0,0,1-.75-1,2.13,2.13,0,0,1-.06-1.23A3.64,3.64,0,0,1,14.73,24a3.07,3.07,0,0,1,1.62-1.21,2.13,2.13,0,0,1,1.78.3l-1,1.36a.87.87,0,0,0-.72-.11,1.23,1.23,0,0,0-.71.51,1.09,1.09,0,0,0-.24.71.83.83,0,0,0,.38.62.69.69,0,0,0,.53.14,1.65,1.65,0,0,0,.57-.21,8.6,8.6,0,0,0,.74-.51,9.14,9.14,0,0,1,1.08-.72,2.17,2.17,0,0,1,1-.26A1.86,1.86,0,0,1,20.9,25a2.25,2.25,0,0,1,.73.94,2.37,2.37,0,0,1,.12,1.25,3.25,3.25,0,0,1-.62,1.36A3.54,3.54,0,0,1,20,29.57Z"/><path class="cls-3" d="M23.67,23.64l1.8-1.77.86.87-2.9,2.86L18,20.13l1.09-1.08Z"/><path class="cls-3" d="M24.31,16.18l1.14,1.55,2.08-1.54.73,1-2.08,1.54,1.21,1.64,2.34-1.73.75,1-3.59,2.65-4.56-6.19,3.58-2.64.75,1Z"/><path class="cls-3" d="M33.52,12.81,34.11,14,30,16.09l-.59-1.16Z"/><path class="cls-3" d="M39.1,7.59l.38,1.18-3,1,.6,1.87,2.33-.75L39.74,12l-2.34.75,1,3.09-1.46.46L34.58,9Z"/><path class="cls-3" d="M46.14,14.16l-2.09-2.73-.72.1.41,3-1.52.22L41.15,7.1,44,6.7a3.35,3.35,0,0,1,1.54.1,2.16,2.16,0,0,1,1.05.71,2.37,2.37,0,0,1,.23,2.56,2.21,2.21,0,0,1-1.18,1l2.25,2.83Zm-3-3.77,1.27-.18a1.3,1.3,0,0,0,.89-.43,1.15,1.15,0,0,0,.18-.88,1,1,0,0,0-.41-.77,1.39,1.39,0,0,0-1-.16l-1.28.18Z"/><path class="cls-3" d="M50.65,7.54l0,1.92,2.58.07,0,1.22-2.59-.07-.06,2,2.92.09,0,1.25-4.45-.13.22-7.68,4.45.13,0,1.25Z"/><path class="cls-3" d="M57.19,8.14,56.84,10l2.54.47-.23,1.2-2.54-.47-.37,2,2.87.53L58.88,15l-4.38-.82,1.4-7.56,4.38.82-.23,1.23Z"/><path class="cls-3" d="M65.93,17.65l-.31-3.42-.66-.3-1.24,2.72L62.32,16l3.16-7,2.63,1.19a3.41,3.41,0,0,1,1.25.91,2.15,2.15,0,0,1,.51,1.16,2.28,2.28,0,0,1-.21,1.22,2.2,2.2,0,0,1-1,1.06,2.26,2.26,0,0,1-1.54.23l.39,3.6Zm-.5-4.78,1.17.54a1.3,1.3,0,0,0,1,.11,1.16,1.16,0,0,0,.63-.64,1.14,1.14,0,0,0,.06-.88,1.35,1.35,0,0,0-.74-.65l-1.17-.53Z"/><path class="cls-3" d="M73.28,14.48,72.2,16.07l2.14,1.45-.69,1-2.14-1.45-1.14,1.69,2.42,1.63-.71,1-3.69-2.5,4.32-6.37,3.69,2.5-.71,1Z"/><path class="cls-3" d="M82,20.12l-.85.91-1.49-1.41-4.42,4.69-1.12-1.06,4.42-4.68-1.49-1.4.85-.91Z"/><path class="cls-3" d="M84.42,23l-3.84,2.8a1.62,1.62,0,0,0-.73,1A1.55,1.55,0,0,0,80.19,28a1.58,1.58,0,0,0,1,.69,1.65,1.65,0,0,0,1.2-.38l3.84-2.8.91,1.25-3.83,2.8a3.07,3.07,0,0,1-1.58.63,2.73,2.73,0,0,1-1.49-.31,3.54,3.54,0,0,1-1.21-1.08,3.45,3.45,0,0,1-.64-1.46,2.64,2.64,0,0,1,.17-1.49,3.18,3.18,0,0,1,1.1-1.3l3.83-2.8Z"/><path class="cls-3" d="M83.19,35.9l2-2.8-.31-.66L82.17,33.7l-.65-1.39,7-3.24,1.22,2.61a3.4,3.4,0,0,1,.35,1.51,2.19,2.19,0,0,1-.37,1.21,2.31,2.31,0,0,1-1,.79,2.35,2.35,0,0,1-1.43.18A2.29,2.29,0,0,1,86,34.53l-2,3ZM85.93,32l.54,1.17a1.29,1.29,0,0,0,.67.72,1.09,1.09,0,0,0,.89-.08,1,1,0,0,0,.61-.62,1.29,1.29,0,0,0-.13-1L88,31Z"/><path class="cls-3" d="M85.81,44.81l-.36-1.5,4.32-4.61-5.13,1.22-.35-1.5,7.48-1.78.35,1.5-4.33,4.61,5.14-1.22.36,1.5Z"/><path class="cls-3" d="M86.16,47.19a2.32,2.32,0,0,1,.76-1,2.08,2.08,0,0,1,1.21-.42l.05,1.65a1.08,1.08,0,0,0-.74.35,1.19,1.19,0,0,0-.25.84,1.32,1.32,0,0,0,.28.84.85.85,0,0,0,.69.29.75.75,0,0,0,.55-.23,1.26,1.26,0,0,0,.33-.53,7.47,7.47,0,0,0,.26-.87,8.49,8.49,0,0,1,.4-1.23,2.06,2.06,0,0,1,.62-.82,1.86,1.86,0,0,1,1.15-.37,2.15,2.15,0,0,1,1.2.3,2.18,2.18,0,0,1,.8.94,3.39,3.39,0,0,1,.32,1.4,3,3,0,0,1-.52,1.94,2.15,2.15,0,0,1-1.59.87l-.05-1.69a.85.85,0,0,0,.64-.36,1.24,1.24,0,0,0,.24-.84,1.08,1.08,0,0,0-.26-.71.83.83,0,0,0-.67-.25.71.71,0,0,0-.51.22,1.41,1.41,0,0,0-.31.52,8.35,8.35,0,0,0-.27.86,9.93,9.93,0,0,1-.4,1.23,2.14,2.14,0,0,1-.64.83,1.79,1.79,0,0,1-1.14.38A2.16,2.16,0,0,1,87.15,51a2.19,2.19,0,0,1-.87-.91,3.08,3.08,0,0,1-.35-1.45A3.57,3.57,0,0,1,86.16,47.19Z"/></svg>