<svg width="145" height="24" viewBox="0 0 145 24" fill="none" xmlns="http://www.w3.org/2000/svg">
<g clip-path="url(#clip0_2_374)">
<path d="M19.7386 23.8177L13.1486 19.2502C12.8971 19.089 12.557 19.089 12.3316 19.2502L5.73762 23.8714C5.20238 24.2475 4.44176 23.7371 4.66713 23.1191L7.17434 15.7306C7.21824 15.5957 7.21767 15.4512 7.17268 15.3167C7.1277 15.1821 7.04048 15.064 6.92281 14.9783L0.300643 10.4377C-0.262775 10.0616 0.0189343 9.22866 0.695035 9.22866H8.83642C8.98437 9.22686 9.12826 9.18222 9.249 9.10065C9.36975 9.01908 9.46165 8.90443 9.51252 8.77192L11.9916 1.38338C12.1893 0.765434 13.1184 0.765434 13.3156 1.38338L15.851 8.77192C15.9355 9.04059 16.2172 9.22866 16.5271 9.22866L24.6685 9.2018C25.3446 9.2018 25.6243 10.0347 25.091 10.4108L18.501 14.9783C18.2495 15.1395 18.163 15.4619 18.2495 15.7306L20.8151 23.1191C21.0123 23.6833 20.2798 24.1938 19.7446 23.8177H19.7386Z" fill="#EDF12B"/>
</g>
<g clip-path="url(#clip1_2_374)">
<path d="M49.6409 23.8177L43.0509 19.2502C42.7994 19.089 42.4593 19.089 42.234 19.2502L35.64 23.8714C35.1047 24.2475 34.3441 23.7371 34.5695 23.1191L37.0767 15.7306C37.1206 15.5957 37.12 15.4512 37.075 15.3167C37.03 15.1821 36.9428 15.064 36.8252 14.9783L30.203 10.4377C29.6396 10.0616 29.9213 9.22866 30.5974 9.22866H38.7388C38.8867 9.22686 39.0306 9.18222 39.1513 9.10065C39.2721 9.01908 39.364 8.90443 39.4149 8.77192L41.8939 1.38338C42.0916 0.765434 43.0207 0.765434 43.2179 1.38338L45.7533 8.77192C45.8378 9.04059 46.1195 9.22866 46.4294 9.22866L54.5708 9.2018C55.2469 9.2018 55.5266 10.0347 54.9934 10.4108L48.4034 14.9783C48.1519 15.1395 48.0653 15.4619 48.1519 15.7306L50.7174 23.1191C50.9146 23.6833 50.1822 24.1938 49.6469 23.8177H49.6409Z" fill="#EDF12B"/>
</g>
<g clip-path="url(#clip2_2_374)">
<path d="M79.5437 23.8177L72.9538 19.2502C72.7022 19.089 72.3622 19.089 72.1368 19.2502L65.5428 23.8714C65.0076 24.2475 64.2469 23.7371 64.4723 23.1191L66.9795 15.7306C67.0234 15.5957 67.0228 15.4512 66.9779 15.3167C66.9329 15.1821 66.8457 15.064 66.728 14.9783L60.1058 10.4377C59.5424 10.0616 59.8241 9.22866 60.5002 9.22866H68.6416C68.7895 9.22686 68.9334 9.18222 69.0542 9.10065C69.1749 9.01908 69.2668 8.90443 69.3177 8.77192L71.7967 1.38338C71.9944 0.765434 72.9236 0.765434 73.1208 1.38338L75.6561 8.77192C75.7407 9.04059 76.0224 9.22866 76.3322 9.22866L84.4736 9.2018C85.1497 9.2018 85.4294 10.0347 84.8962 10.4108L78.3062 14.9783C78.0547 15.1395 77.9682 15.4619 78.0547 15.7306L80.6203 23.1191C80.8175 23.6833 80.085 24.1938 79.5498 23.8177H79.5437Z" fill="#EDF12B"/>
</g>
<g clip-path="url(#clip3_2_374)">
<path d="M109.446 23.8177L102.856 19.2502C102.605 19.089 102.265 19.089 102.039 19.2502L95.4451 23.8714C94.9099 24.2475 94.1493 23.7371 94.3746 23.1191L96.8819 15.7306C96.9258 15.5957 96.9252 15.4512 96.8802 15.3167C96.8352 15.1821 96.748 15.064 96.6303 14.9783L90.0082 10.4377C89.4447 10.0616 89.7265 9.22866 90.4026 9.22866H98.5439C98.6919 9.22686 98.8358 9.18222 98.9565 9.10065C99.0773 9.01908 99.1692 8.90443 99.22 8.77192L101.699 1.38338C101.897 0.765434 102.826 0.765434 103.023 1.38338L105.558 8.77192C105.643 9.04059 105.925 9.22866 106.235 9.22866L114.376 9.2018C115.052 9.2018 115.332 10.0347 114.799 10.4108L108.209 14.9783C107.957 15.1395 107.871 15.4619 107.957 15.7306L110.523 23.1191C110.72 23.6833 109.987 24.1938 109.452 23.8177H109.446Z" fill="#EDF12B"/>
</g>
<g clip-path="url(#clip4_2_374)">
<path d="M139.35 23.8177L132.76 19.2502C132.508 19.089 132.168 19.089 131.943 19.2502L125.349 23.8714C124.814 24.2475 124.053 23.7371 124.278 23.1191L126.786 15.7306C126.829 15.5957 126.829 15.4512 126.784 15.3167C126.739 15.1821 126.652 15.064 126.534 14.9783L119.912 10.4377C119.348 10.0616 119.63 9.22866 120.306 9.22866H128.448C128.596 9.22686 128.739 9.18222 128.86 9.10065C128.981 9.01908 129.073 8.90443 129.124 8.77192L131.603 1.38338C131.8 0.765434 132.73 0.765434 132.927 1.38338L135.462 8.77192C135.547 9.04059 135.828 9.22866 136.138 9.22866L144.28 9.2018C144.956 9.2018 145.235 10.0347 144.702 10.4108L138.112 14.9783C137.861 15.1395 137.774 15.4619 137.861 15.7306L140.426 23.1191C140.623 23.6833 139.891 24.1938 139.356 23.8177H139.35Z" fill="#EDF12B"/>
</g>
<mask id="mask0_2_374" style="mask-type:alpha" maskUnits="userSpaceOnUse" x="119" y="0" width="26" height="24">
<g clip-path="url(#clip5_2_374)">
<path d="M139.348 23.8177L132.758 19.2502C132.507 19.089 132.167 19.089 131.941 19.2502L125.347 23.8714C124.812 24.2475 124.052 23.7371 124.277 23.1191L126.784 15.7306C126.828 15.5957 126.828 15.4512 126.783 15.3167C126.738 15.1821 126.65 15.064 126.533 14.9783L119.911 10.4377C119.347 10.0616 119.629 9.22866 120.305 9.22866H128.446C128.594 9.22686 128.738 9.18222 128.859 9.10065C128.98 9.01908 129.072 8.90443 129.122 8.77192L131.601 1.38338C131.799 0.765434 132.728 0.765434 132.925 1.38338L135.461 8.77192C135.545 9.04059 135.827 9.22866 136.137 9.22866L144.278 9.2018C144.954 9.2018 145.234 10.0347 144.701 10.4108L138.111 14.9783C137.859 15.1395 137.773 15.4619 137.859 15.7306L140.425 23.1191C140.622 23.6833 139.89 24.1938 139.354 23.8177H139.348Z" fill="white"/>
</g>
</mask>
<g mask="url(#mask0_2_374)">
<rect x="133.62" y="-2.68945" width="14.8406" height="29.7376" fill="#CBCBCB"/>
</g>
<defs>
<clipPath id="clip0_2_374">
<rect width="25.3719" height="23.0796" fill="white" transform="translate(0 0.919922)"/>
</clipPath>
<clipPath id="clip1_2_374">
<rect width="25.3719" height="23.0796" fill="white" transform="translate(29.9023 0.919922)"/>
</clipPath>
<clipPath id="clip2_2_374">
<rect width="25.3719" height="23.0796" fill="white" transform="translate(59.8052 0.919922)"/>
</clipPath>
<clipPath id="clip3_2_374">
<rect width="25.3719" height="23.0796" fill="white" transform="translate(89.7075 0.919922)"/>
</clipPath>
<clipPath id="clip4_2_374">
<rect width="25.3719" height="23.0796" fill="white" transform="translate(119.611 0.919922)"/>
</clipPath>
<clipPath id="clip5_2_374">
<rect width="25.3719" height="23.0796" fill="white" transform="translate(119.61 0.919922)"/>
</clipPath>
</defs>
</svg>
