<svg width="193" height="31" viewBox="0 0 193 31" fill="none" xmlns="http://www.w3.org/2000/svg">
<g clip-path="url(#clip0_5_256)">
<path d="M26.2757 30.7617L17.5032 24.7716C17.1684 24.5602 16.7157 24.5602 16.4157 24.7716L7.6378 30.8321C6.92528 31.3254 5.91276 30.656 6.21277 29.8455L9.55035 20.1557C9.6088 19.9788 9.60802 19.7893 9.54814 19.6129C9.48826 19.4364 9.37215 19.2815 9.21552 19.1691L0.400131 13.2142C-0.349886 12.7209 0.0251228 11.6286 0.925144 11.6286H11.7629C11.9599 11.6263 12.1514 11.5677 12.3121 11.4607C12.4729 11.3537 12.5952 11.2034 12.6629 11.0296L15.963 1.33975C16.2262 0.529328 17.463 0.529328 17.7255 1.33975L21.1006 11.0296C21.2131 11.382 21.5881 11.6286 22.0006 11.6286L32.8384 11.5934C33.7384 11.5934 34.1107 12.6857 33.4009 13.179L24.6284 19.1691C24.2936 19.3805 24.1784 19.8033 24.2936 20.1557L27.7088 29.8455C27.9713 30.5855 26.9963 31.255 26.2838 30.7617H26.2757Z" fill="#D5F50A"/>
</g>
<g clip-path="url(#clip1_5_256)">
<path d="M66.0812 30.7617L57.3086 24.7716C56.9738 24.5602 56.5211 24.5602 56.2211 24.7716L47.4432 30.8321C46.7307 31.3254 45.7182 30.656 46.0182 29.8455L49.3558 20.1557C49.4142 19.9788 49.4134 19.7893 49.3536 19.6129C49.2937 19.4364 49.1776 19.2815 49.0209 19.1691L40.2056 13.2142C39.4555 12.7209 39.8305 11.6286 40.7306 11.6286H51.5683C51.7653 11.6263 51.9568 11.5677 52.1175 11.4607C52.2783 11.3537 52.4006 11.2034 52.4683 11.0296L55.7684 1.33975C56.0316 0.529328 57.2685 0.529328 57.531 1.33975L60.906 11.0296C61.0185 11.382 61.3935 11.6286 61.8061 11.6286L72.6438 11.5934C73.5438 11.5934 73.9162 12.6857 73.2063 13.179L64.4338 19.1691C64.099 19.3805 63.9838 19.8033 64.099 20.1557L67.5142 29.8455C67.7767 30.5855 66.8017 31.255 66.0892 30.7617H66.0812Z" fill="#D5F50A"/>
</g>
<g clip-path="url(#clip2_5_256)">
<path d="M105.888 30.7617L97.1155 24.7716C96.7807 24.5602 96.328 24.5602 96.028 24.7716L87.2501 30.8321C86.5376 31.3254 85.5251 30.656 85.8251 29.8455L89.1627 20.1557C89.2211 19.9788 89.2203 19.7893 89.1604 19.6129C89.1006 19.4364 88.9845 19.2815 88.8278 19.1691L80.0124 13.2142C79.2624 12.7209 79.6374 11.6286 80.5374 11.6286H91.3752C91.5722 11.6263 91.7637 11.5677 91.9244 11.4607C92.0852 11.3537 92.2075 11.2034 92.2752 11.0296L95.5753 1.33975C95.8385 0.529328 97.0753 0.529328 97.3378 1.33975L100.713 11.0296C100.825 11.382 101.2 11.6286 101.613 11.6286L112.451 11.5934C113.351 11.5934 113.723 12.6857 113.013 13.179L104.241 19.1691C103.906 19.3805 103.791 19.8033 103.906 20.1557L107.321 29.8455C107.584 30.5855 106.609 31.255 105.896 30.7617H105.888Z" fill="#D5F50A"/>
</g>
<g clip-path="url(#clip3_5_256)">
<path d="M145.694 30.7617L136.922 24.7716C136.587 24.5602 136.134 24.5602 135.834 24.7716L127.056 30.8321C126.344 31.3254 125.331 30.656 125.631 29.8455L128.969 20.1557C129.027 19.9788 129.026 19.7893 128.967 19.6129C128.907 19.4364 128.791 19.2815 128.634 19.1691L119.819 13.2142C119.069 12.7209 119.444 11.6286 120.344 11.6286H131.181C131.378 11.6263 131.57 11.5677 131.731 11.4607C131.891 11.3537 132.014 11.2034 132.081 11.0296L135.381 1.33975C135.645 0.529328 136.881 0.529328 137.144 1.33975L140.519 11.0296C140.632 11.382 141.007 11.6286 141.419 11.6286L152.257 11.5934C153.157 11.5934 153.529 12.6857 152.819 13.179L144.047 19.1691C143.712 19.3805 143.597 19.8033 143.712 20.1557L147.127 29.8455C147.39 30.5855 146.415 31.255 145.702 30.7617H145.694Z" fill="#D5F50A"/>
</g>
<g clip-path="url(#clip4_5_256)">
<path d="M185.501 30.7617L176.728 24.7716C176.393 24.5602 175.941 24.5602 175.641 24.7716L166.863 30.8321C166.15 31.3254 165.138 30.656 165.438 29.8455L168.775 20.1557C168.834 19.9788 168.833 19.7893 168.773 19.6129C168.713 19.4364 168.597 19.2815 168.441 19.1691L159.625 13.2142C158.875 12.7209 159.25 11.6286 160.15 11.6286H170.988C171.185 11.6263 171.376 11.5677 171.537 11.4607C171.698 11.3537 171.82 11.2034 171.888 11.0296L175.188 1.33975C175.451 0.529328 176.688 0.529328 176.951 1.33975L180.326 11.0296C180.438 11.382 180.813 11.6286 181.226 11.6286L192.063 11.5934C192.964 11.5934 193.336 12.6857 192.626 13.179L183.853 19.1691C183.519 19.3805 183.403 19.8033 183.519 20.1557L186.934 29.8455C187.196 30.5855 186.221 31.255 185.509 30.7617H185.501Z" fill="#D5F50A"/>
</g>
<mask id="mask0_5_256" style="mask-type:alpha" maskUnits="userSpaceOnUse" x="159" y="0" width="34" height="32">
<g clip-path="url(#clip5_5_256)">
<path d="M185.501 30.7617L176.728 24.7716C176.393 24.5602 175.941 24.5602 175.641 24.7716L166.863 30.8321C166.15 31.3254 165.138 30.656 165.438 29.8455L168.775 20.1557C168.834 19.9788 168.833 19.7893 168.773 19.6129C168.713 19.4364 168.597 19.2815 168.44 19.1691L159.625 13.2142C158.875 12.7209 159.25 11.6286 160.15 11.6286H170.988C171.185 11.6263 171.376 11.5677 171.537 11.4607C171.698 11.3537 171.82 11.2034 171.888 11.0296L175.188 1.33975C175.451 0.529328 176.688 0.529328 176.95 1.33975L180.325 11.0296C180.438 11.382 180.813 11.6286 181.225 11.6286L192.063 11.5934C192.963 11.5934 193.336 12.6857 192.626 13.179L183.853 19.1691C183.518 19.3805 183.403 19.8033 183.518 20.1557L186.934 29.8455C187.196 30.5855 186.221 31.255 185.509 30.7617H185.501Z" fill="white"/>
</g>
</mask>
<g mask="url(#mask0_5_256)">
<rect x="177.875" y="-4" width="19.7558" height="39" fill="#FFFDFD"/>
</g>
<defs>
<clipPath id="clip0_5_256">
<rect width="33.7749" height="30.2682" fill="white" transform="translate(0 0.731934)"/>
</clipPath>
<clipPath id="clip1_5_256">
<rect width="33.7749" height="30.2682" fill="white" transform="translate(39.8054 0.731934)"/>
</clipPath>
<clipPath id="clip2_5_256">
<rect width="33.7749" height="30.2682" fill="white" transform="translate(79.6123 0.731934)"/>
</clipPath>
<clipPath id="clip3_5_256">
<rect width="33.7749" height="30.2682" fill="white" transform="translate(119.418 0.731934)"/>
</clipPath>
<clipPath id="clip4_5_256">
<rect width="33.7749" height="30.2682" fill="white" transform="translate(159.225 0.731934)"/>
</clipPath>
<clipPath id="clip5_5_256">
<rect width="33.7749" height="30.2682" fill="white" transform="translate(159.225 0.731934)"/>
</clipPath>
</defs>
</svg>
