<svg xmlns="http://www.w3.org/2000/svg" style="isolation:isolate" viewBox="553.706 1214.732 40.575 40.896" width="40.575" height="40.896">
  <defs>
    <linearGradient id="b" x1=".543" y1=".052" x2=".543" y2=".993">
      <stop offset="2.174%" style="stop-color:#a540e8"/>
      <stop offset="98.261%" style="stop-color:#7d27b7"/>
    </linearGradient>
  </defs>
  <g filter="url(#a)">
    <path d="M565.706 1215.732h16.576c5.519 0 10 4.481 10 10v16.897c0 5.519-4.481 10-10 10h-16.576c-5.519 0-10-4.481-10-10v-16.897c0-5.519 4.481-10 10-10" style="stroke:none;fill:url(#b);stroke-miterlimit:10"/>
  </g>
  <path d="M572.908 1228.387h9.659c.861 0 1.559.698 1.559 1.559v11.056a1.56 1.56 0 0 1-1.559 1.56h-17.146a1.56 1.56 0 0 1-1.56-1.56v-14.007c0-.66.536-1.195 1.196-1.195h6.655c.66 0 1.196.535 1.196 1.195z" fill="#FFF"/>
  <path d="M571.292 1232.683v-1.197a.385.385 0 0 0-.769 0l.006 2.21a.385.385 0 0 0 .385.385l2.211.006a.384.384 0 0 0 0-.769h-1.379a3.193 3.193 0 1 1-.865 3.453.385.385 0 0 0-.724.261 3.965 3.965 0 1 0 1.135-4.349Z" fill="#9133CF" vector-effect="non-scaling-stroke" stroke-width=".597" stroke="#8F33CE"/>
</svg>
