<svg width="89" height="17" viewBox="0 0 89 17" fill="none" xmlns="http://www.w3.org/2000/svg">
<g clip-path="url(#clip0_393_12)">
<path d="M0.214844 0.223633H16.7966V16.8672H0.214844V0.223633ZM18.1783 0.223633H34.76V16.8672H18.1783V0.223633ZM36.1417 0.223633H52.7235V16.8672H36.1417V0.223633ZM54.1052 0.223633H70.6869V16.8672H54.1052V0.223633ZM72.0686 0.223633H88.6503V16.8672H72.0686V0.223633Z" fill="#00B67A"/>
<path d="M8.50504 11.4405L11.0269 10.7989L12.0807 14.0583L8.50539 11.4405H8.50504ZM14.3086 7.22765H9.86943L8.50504 3.03223L7.14065 7.22765H2.70117L6.29379 9.82813L4.9294 14.0235L8.52202 11.4231L10.7329 9.82813L14.3082 7.22765H14.3086ZM26.4685 11.4405L28.9903 10.7989L30.0441 14.0583L26.4688 11.4405H26.4685ZM32.272 7.22765H27.8329L26.4685 3.03223L25.1041 7.22765H20.665L24.2576 9.82813L22.8932 14.0235L26.4858 11.4231L28.6967 9.82813L32.272 7.22765ZM44.4319 11.4405L46.9538 10.7989L48.0076 14.0583L44.4323 11.4405H44.4319ZM50.2354 7.22765H45.7963L44.4319 3.03223L43.0675 7.22765H38.6284L42.221 9.82813L40.8566 14.0235L44.4493 11.4231L46.6601 9.82813L50.2354 7.22765ZM62.3954 11.4405L64.9172 10.7989L65.971 14.0583L62.3957 11.4405H62.3954ZM68.1989 7.22765H63.7598L62.3954 3.03223L61.031 7.22765H56.5918L60.1845 9.82813L58.8201 14.0235L62.4127 11.4231L64.6236 9.82813L68.1989 7.22765ZM80.3588 11.4405L82.8806 10.7989L83.9344 14.0583L80.3592 11.4405H80.3588ZM86.1623 7.22765H81.7232L80.3588 3.03223L78.9944 7.22765H74.5553L78.1479 9.82813L76.7835 14.0235L80.3761 11.4231L82.587 9.82813L86.1623 7.22765Z" fill="white"/>
<path d="M88.6426 0.213867H80.3516V3.02241L81.716 7.21783H86.1551L82.5798 9.81831L80.3689 11.4133L80.3516 11.4257V16.8571H88.6426V0.213867ZM80.3516 11.431L82.8734 10.7894L83.9272 14.0489L80.3519 11.431H80.3516Z" fill="#DCDCE7"/>
</g>
<defs>
<clipPath id="clip0_393_12">
<rect width="88.4359" height="16.6535" fill="white" transform="translate(0.214844 0.213867)"/>
</clipPath>
</defs>
</svg>
