<svg id="Camada_1" data-name="Camada 1" xmlns="http://www.w3.org/2000/svg" viewBox="0 0 952 952"><defs><style>.cls-1{fill:#ffd519;}</style></defs><path class="cls-1" d="M471.75,508a562,562,0,0,1-291-81.17L171,420.88l18.52-30.61,9.77,5.91c170.62,103.2,381.76,101.8,551-3.66l18.92,30.36A562.08,562.08,0,0,1,475.49,508Z"/><path class="cls-1" d="M727.66,781.28H224.34a53.73,53.73,0,0,1-53.67-53.68V620.26a53.73,53.73,0,0,1,53.67-53.67H727.66a53.73,53.73,0,0,1,53.67,53.67V727.6A53.73,53.73,0,0,1,727.66,781.28ZM224.34,602.37a17.91,17.91,0,0,0-17.89,17.89V727.6a17.9,17.9,0,0,0,17.89,17.89H727.66a17.9,17.9,0,0,0,17.89-17.89V620.26a17.91,17.91,0,0,0-17.89-17.89Z"/><rect class="cls-1" x="243.42" y="638.15" width="35.78" height="71.56"/><rect class="cls-1" x="314.98" y="638.15" width="35.78" height="71.56"/><rect class="cls-1" x="386.55" y="638.15" width="35.78" height="71.56"/><rect class="cls-1" x="458.11" y="638.15" width="35.78" height="71.56"/><rect class="cls-1" x="529.67" y="638.15" width="35.78" height="71.56"/><rect class="cls-1" x="601.23" y="638.15" width="35.78" height="71.56"/><rect class="cls-1" x="672.8" y="638.15" width="35.78" height="71.56"/><polygon class="cls-1" points="759.28 485.68 724.5 477.29 738.11 420.89 681.72 407.28 690.11 372.5 781.29 394.51 759.28 485.68"/><path class="cls-1" d="M297.09,341.76a53.73,53.73,0,0,1-53.67-53.67c0-7.37,2.11-20.79,20.31-52.17,9.19-15.85,18.26-29,18.64-29.56l14.72-21.31,14.72,21.31c.39.55,9.46,13.71,18.65,29.56,18.2,31.38,20.31,44.8,20.31,52.17A53.73,53.73,0,0,1,297.09,341.76Zm0-92.07c-10.31,17.36-17.75,32.95-17.9,38.42a17.89,17.89,0,0,0,35.78,0C314.83,282.62,307.39,267,297.1,249.69Z"/><path class="cls-1" d="M654.91,341.76a53.73,53.73,0,0,1-53.68-53.67c0-7.37,2.11-20.79,20.31-52.17,9.19-15.85,18.26-29,18.65-29.56l14.72-21.31,14.72,21.31c.38.55,9.45,13.71,18.64,29.56,18.2,31.38,20.31,44.8,20.31,52.17A53.73,53.73,0,0,1,654.91,341.76Zm0-92.07c-10.31,17.36-17.75,32.95-17.89,38.42a17.89,17.89,0,0,0,35.78,0C672.64,282.62,665.21,267,654.91,249.69Z"/><path class="cls-1" d="M476,413.33a89.56,89.56,0,0,1-89.45-89.46c0-20.32,12.71-48.93,38.86-87.48,18.19-26.8,36.1-48.31,36.86-49.22L476,170.72l13.73,16.45c.76.91,18.67,22.42,36.86,49.22,26.15,38.55,38.86,67.16,38.86,87.48A89.56,89.56,0,0,1,476,413.33Zm0-186c-25.59,33.41-53.67,77.35-53.67,96.55a53.67,53.67,0,1,0,107.34,0C529.67,304.67,501.59,260.73,476,227.32Z"/></svg>