<svg id="Camada_1" data-name="Camada 1" xmlns="http://www.w3.org/2000/svg" viewBox="0 0 100 100"><defs><style>.cls-1{fill:#5d5d5d;}.cls-2{fill:#050b0f;}.cls-3{fill:#fff;}</style></defs><path class="cls-1" d="M50,98A48,48,0,1,0,2,50,48,48,0,0,0,50,98Z"/><path class="cls-2" d="M50,83A33,33,0,1,0,17,50,33,33,0,0,0,50,83Z"/><path class="cls-3" d="M49.9,85.2l1.2,3.4h3.6l-2.9,2.1,1.1,3.5-3-2.2L47,94.2l1.1-3.5-2.9-2.1h3.6Z"/><path class="cls-3" d="M62.1,82.9l1.1,3.4h3.6l-2.9,2.1L65,91.9l-2.9-2.1-3,2.1,1.1-3.5-2.9-2.1h3.6Z"/><path class="cls-3" d="M37.4,82.9l1.1,3.4h3.6l-2.9,2.1,1.1,3.5-2.9-2.1-2.9,2.1,1.1-3.5-2.9-2.1h3.6Z"/><path class="cls-3" d="M55.7,61.59H41a1,1,0,1,1,0-2H54.7V37.15H28a1,1,0,0,1,0-2H55.7a1,1,0,0,1,1,1V60.59A1,1,0,0,1,55.7,61.59Z"/><path class="cls-3" d="M63.85,64.85a4.26,4.26,0,1,1,4.26-4.26A4.26,4.26,0,0,1,63.85,64.85Zm0-6.52a2.26,2.26,0,1,0,2.26,2.26A2.27,2.27,0,0,0,63.85,58.33Z"/><path class="cls-3" d="M37.78,64.85A4.26,4.26,0,1,1,42,60.59,4.26,4.26,0,0,1,37.78,64.85Zm0-6.52A2.26,2.26,0,1,0,40,60.59,2.26,2.26,0,0,0,37.78,58.33Z"/><path class="cls-3" d="M72,61.59H67.11a1,1,0,0,1,0-2H71V51.17l-6-7.5H56.7V60.59a1,1,0,0,1-2,0V42.67a1,1,0,0,1,1-1h9.78a1,1,0,0,1,.78.37l6.52,8.15a1,1,0,0,1,.22.63v9.77A1,1,0,0,1,72,61.59Z"/><path class="cls-3" d="M45.93,43.67H31.26a1,1,0,0,1,0-2H45.93a1,1,0,0,1,0,2Z"/><path class="cls-3" d="M42.67,50.19H28a1,1,0,0,1,0-2H42.67a1,1,0,0,1,0,2Z"/><path class="cls-3" d="M6.57,44.44l1.24.08-.22,3.2,2,.13.16-2.45,1.22.09-.17,2.44,3.24.22-.1,1.54-7.66-.52Z"/><path class="cls-3" d="M14,39.26l-.75,3,1.29.85-.39,1.56L7.4,40.08l.44-1.74L16,37.55l-.4,1.58Zm-1.29.11-3.39.28,2.84,1.87Z"/><path class="cls-3" d="M16.65,35.75a2.29,2.29,0,0,1-1.15.58,2.1,2.1,0,0,1-1.27-.17l.71-1.49a1.11,1.11,0,0,0,.82,0,1.47,1.47,0,0,0,.73-1.51.85.85,0,0,0-.48-.57.77.77,0,0,0-.59,0,1.36,1.36,0,0,0-.54.32,6,6,0,0,0-.62.66,9.6,9.6,0,0,1-.92.91,2.13,2.13,0,0,1-.93.45,1.81,1.81,0,0,1-1.19-.19,2.14,2.14,0,0,1-.93-.82,2.18,2.18,0,0,1-.29-1.2,3.33,3.33,0,0,1,.36-1.38,3,3,0,0,1,1.35-1.5,2.15,2.15,0,0,1,1.81,0l-.73,1.53a.89.89,0,0,0-.73,0,1.24,1.24,0,0,0-.59.64,1,1,0,0,0-.1.75.8.8,0,0,0,.49.53.71.71,0,0,0,.55,0,1.55,1.55,0,0,0,.51-.32c.16-.14.37-.36.63-.64a8.79,8.79,0,0,1,.92-.92,2.21,2.21,0,0,1,.95-.45,1.85,1.85,0,0,1,1.19.18,2.17,2.17,0,0,1,.89.78,2.24,2.24,0,0,1,.36,1.21,3.16,3.16,0,0,1-.34,1.46A3.56,3.56,0,0,1,16.65,35.75Z"/><path class="cls-3" d="M15.92,22.49l1,.72-1.18,1.67L21,28.59l-.89,1.26-5.25-3.71-1.18,1.67-1-.72Z"/><path class="cls-3" d="M28.91,20.69l-1.17-.11a3.74,3.74,0,0,1-1.4,2.4A3.56,3.56,0,0,1,25,23.7,2.18,2.18,0,0,1,22.65,23a2.26,2.26,0,0,1-.53-1.32,3,3,0,0,1,.35-1.56,2.55,2.55,0,0,1-.78-.27,1.78,1.78,0,0,1-.56-.47,1.73,1.73,0,0,1-.39-.91,1.83,1.83,0,0,1,.18-1,2.81,2.81,0,0,1,.77-.95,2.42,2.42,0,0,1,1.08-.55,1.75,1.75,0,0,1,1,.07,1.73,1.73,0,0,1,.78.62l-1.15,1a.71.71,0,0,0-.49-.32.68.68,0,0,0-.51.17.71.71,0,0,0-.28.47.6.6,0,0,0,.14.49.93.93,0,0,0,.47.31,4,4,0,0,0,.84.17l2.71.25V19l-.18-1.2,1.24-1,.26,1.53c.07.31.12.62.16.93l2.6.23Zm-2.52-.23-2.65-.24a1.49,1.49,0,0,0,0,1.72,1.06,1.06,0,0,0,.81.4,1.44,1.44,0,0,0,1-.37A2.31,2.31,0,0,0,26.39,20.46Z"/><path class="cls-3" d="M31.71,11.66l.8,1.75,2.35-1.08.51,1.11L33,14.52l.85,1.85,2.65-1.22L37,16.29l-4,1.86-3.21-7,4-1.87.52,1.14Z"/><path class="cls-3" d="M42.22,13.28l-3,.76-.13,1.54-1.57.4.78-8.14,1.74-.44,4.57,6.78-1.58.4Zm-.71-1.09L39.65,9.35l-.29,3.39Z"/><path class="cls-3" d="M46.56,13.91a2.34,2.34,0,0,1-1.06-.74A2.12,2.12,0,0,1,45,12l1.65-.1a1.06,1.06,0,0,0,.38.73,1.18,1.18,0,0,0,.84.23,1.23,1.23,0,0,0,.83-.31.8.8,0,0,0,.27-.69.76.76,0,0,0-.24-.55,1.3,1.3,0,0,0-.54-.31,7.76,7.76,0,0,0-.88-.24,10.73,10.73,0,0,1-1.23-.36,2.16,2.16,0,0,1-.84-.61,1.78,1.78,0,0,1-.4-1.14,2,2,0,0,1,.27-1.2,2.16,2.16,0,0,1,.91-.83,3.56,3.56,0,0,1,1.39-.35,3.1,3.1,0,0,1,2,.47,2.14,2.14,0,0,1,.91,1.57l-1.69.09a.87.87,0,0,0-.37-.63,1.21,1.21,0,0,0-.84-.22,1.11,1.11,0,0,0-.71.27.85.85,0,0,0-.23.69.71.71,0,0,0,.23.5,1.48,1.48,0,0,0,.52.3q.32.11.87.24a11,11,0,0,1,1.25.37,2.19,2.19,0,0,1,.84.62,1.82,1.82,0,0,1,.41,1.13,2.22,2.22,0,0,1-.25,1.16,2.24,2.24,0,0,1-.89.89,3.08,3.08,0,0,1-1.44.4A3.62,3.62,0,0,1,46.56,13.91Z"/><path class="cls-3" d="M58.76,7l-3.19,4.64-.33,2.66-1.53-.19L54,11.5l-2-5.29,1.73.21L55,10.11l2.06-3.28Z"/><path class="cls-3" d="M68,10.63a3.36,3.36,0,0,1,.8,1.78,4,4,0,0,1-.31,2.07,4,4,0,0,1-1.23,1.68,3.47,3.47,0,0,1-1.82.69,4.53,4.53,0,0,1-2.15-.37l-2.48-1,2.92-7.1,2.48,1A4.5,4.5,0,0,1,68,10.63Zm-2.28,4.72A2.55,2.55,0,0,0,67,13.88a2.6,2.6,0,0,0,.1-2,2.46,2.46,0,0,0-1.47-1.34l-1-.42-1.93,4.69,1,.42A2.51,2.51,0,0,0,65.68,15.35Z"/><path class="cls-3" d="M72.46,14l-1,1.62L73.59,17l-.66,1-2.17-1.41L69.65,18.3l2.45,1.58-.68,1.06-3.74-2.42,4.17-6.46,3.74,2.42-.68,1Z"/><path class="cls-3" d="M74.28,21.75l1.91,1.66-.8.92-3.07-2.67,5-5.79,1.16,1Z"/><path class="cls-3" d="M82.58,20.85,77,26.07l-1-1.13,5.63-5.22Z"/><path class="cls-3" d="M88.1,28.24l-7.91,2.05-1.07-1.53,4.71-6.69.94,1.36L81,28.64l6.22-1.74Z"/><path class="cls-3" d="M88.48,32l-1.76.79,1.06,2.35-1.11.51-1.06-2.36-1.86.84L85,36.78l-1.14.52L82,33.24l7-3.16,1.83,4.06-1.15.52Z"/><path class="cls-3" d="M85.19,42.15l2.48-2.39-.18-.7-2.9.74-.38-1.49,7.43-1.91.72,2.79a3.46,3.46,0,0,1,.08,1.55,2.24,2.24,0,0,1-.59,1.12,2.3,2.3,0,0,1-1.08.6,2.26,2.26,0,0,1-1.43-.08,2.28,2.28,0,0,1-1.14-1.06l-2.56,2.55Zm3.42-3.38L88.93,40a1.31,1.31,0,0,0,.52.83,1.18,1.18,0,0,0,.9.08,1,1,0,0,0,.71-.5,1.33,1.33,0,0,0,0-1l-.32-1.24Z"/><path class="cls-3" d="M93.83,50.43l-5.16-2.26L86,48.34l-.1-1.53,2.67-.18,4.82-2.93.11,1.73-3.39,1.88,3.61,1.4Z"/></svg>