<svg width="154" height="29" viewBox="0 0 154 29" fill="none" xmlns="http://www.w3.org/2000/svg">
<g clip-path="url(#clip0_99_98)">
<path d="M0 0.0175781H28.875V29.0003H0V0.0175781ZM31.2811 0.0175781H60.1561V29.0003H31.2811V0.0175781ZM62.5622 0.0175781H91.4372V29.0003H62.5622V0.0175781ZM93.8433 0.0175781H122.718V29.0003H93.8433V0.0175781ZM125.124 0.0175781H153.999V29.0003H125.124V0.0175781Z" fill="#00B67A"/>
<path d="M14.4378 19.5501L18.8292 18.4328L20.6643 24.1088L14.4384 19.5501H14.4378ZM24.5439 12.214H16.8137L14.4378 4.9082L12.0619 12.214H4.33105L10.5872 16.7424L8.21124 24.0482L14.4673 19.5198L18.3173 16.7424L24.5432 12.214H24.5439ZM45.7189 19.5501L50.1103 18.4328L51.9454 24.1088L45.7195 19.5501H45.7189ZM55.825 12.214H48.0948L45.7189 4.9082L43.3429 12.214H35.6128L41.8689 16.7424L39.4929 24.0482L45.749 19.5198L49.599 16.7424L55.825 12.214ZM76.9999 19.5501L81.3914 18.4328L83.2265 24.1088L77.0006 19.5501H76.9999ZM87.106 12.214H79.3759L76.9999 4.9082L74.624 12.214H66.8939L73.1499 16.7424L70.774 24.0482L77.0301 19.5198L80.8801 16.7424L87.106 12.214ZM108.281 19.5501L112.673 18.4328L114.508 24.1088L108.282 19.5501H108.281ZM118.387 12.214H110.657L108.281 4.9082L105.905 12.214H98.1749L104.431 16.7424L102.055 24.0482L108.311 19.5198L112.161 16.7424L118.387 12.214ZM139.562 19.5501L143.954 18.4328L145.789 24.1088L139.563 19.5501H139.562ZM149.668 12.214H141.938L139.562 4.9082L137.186 12.214H129.456L135.712 16.7424L133.336 24.0482L139.592 19.5198L143.442 16.7424L149.668 12.214Z" fill="white"/>
<path d="M153.986 0H139.548V4.89073L141.924 12.1965H149.654L143.428 16.7249L139.578 19.5023L139.548 19.524V28.9821H153.986V0ZM139.548 19.5333L143.939 18.416L145.774 24.092L139.548 19.5333H139.548Z" fill="#DCDCE7"/>
</g>
<defs>
<clipPath id="clip0_99_98">
<rect width="154" height="29" fill="white"/>
</clipPath>
</defs>
</svg>
