<svg width="161" height="27" viewBox="0 0 161 27" fill="none" xmlns="http://www.w3.org/2000/svg">
<g clip-path="url(#clip0_26_152)">
<path d="M21.919 25.9085L14.601 20.7405C14.3217 20.5581 13.9441 20.5581 13.6938 20.7405L6.37131 25.9693C5.77693 26.3949 4.93229 25.8173 5.18255 25.1181L7.96675 16.7581C8.01551 16.6055 8.01486 16.442 7.96491 16.2898C7.91496 16.1375 7.8181 16.0039 7.68744 15.9069L0.333667 10.7692C-0.291996 10.3436 0.0208359 9.40124 0.771631 9.40124H9.81246C9.97675 9.3992 10.1365 9.34868 10.2706 9.25639C10.4047 9.16409 10.5068 9.03438 10.5632 8.88443L13.3162 0.524402C13.5357 -0.174801 14.5675 -0.174801 14.7865 0.524402L17.602 8.88443C17.6958 9.18844 18.0086 9.40124 18.3527 9.40124L27.3936 9.37084C28.1444 9.37084 28.455 10.3132 27.8628 10.7388L20.5448 15.9069C20.2655 16.0893 20.1694 16.4541 20.2655 16.7581L23.1145 25.1181C23.3335 25.7565 22.5201 26.3341 21.9257 25.9085H21.919Z" fill="#D5F50A"/>
</g>
<g clip-path="url(#clip1_26_152)">
<path d="M55.1246 25.9085L47.8066 20.7405C47.5273 20.5581 47.1496 20.5581 46.8994 20.7405L39.5769 25.9693C38.9825 26.3949 38.1379 25.8173 38.3881 25.1181L41.1723 16.7581C41.2211 16.6055 41.2204 16.442 41.1705 16.2898C41.1205 16.1375 41.0237 16.0039 40.893 15.9069L33.5392 10.7692C32.9136 10.3436 33.2264 9.40124 33.9772 9.40124H43.018C43.1823 9.3992 43.3421 9.34868 43.4762 9.25639C43.6103 9.16409 43.7123 9.03438 43.7688 8.88443L46.5217 0.524402C46.7413 -0.174801 47.7731 -0.174801 47.992 0.524402L50.8075 8.88443C50.9014 9.18844 51.2142 9.40124 51.5583 9.40124L60.5991 9.37084C61.3499 9.37084 61.6605 10.3132 61.0684 10.7388L53.7504 15.9069C53.4711 16.0893 53.375 16.4541 53.4711 16.7581L56.3201 25.1181C56.539 25.7565 55.7257 26.3341 55.1313 25.9085H55.1246Z" fill="#D5F50A"/>
</g>
<g clip-path="url(#clip2_26_152)">
<path d="M88.3314 25.9085L81.0134 20.7405C80.734 20.5581 80.3564 20.5581 80.1062 20.7405L72.7837 25.9693C72.1893 26.3949 71.3446 25.8173 71.5949 25.1181L74.3791 16.7581C74.4279 16.6055 74.4272 16.442 74.3773 16.2898C74.3273 16.1375 74.2305 16.0039 74.0998 15.9069L66.746 10.7692C66.1204 10.3436 66.4332 9.40124 67.184 9.40124H76.2248C76.3891 9.3992 76.5489 9.34868 76.683 9.25639C76.8171 9.16409 76.9191 9.03438 76.9756 8.88443L79.7285 0.524402C79.9481 -0.174801 80.9798 -0.174801 81.1988 0.524402L84.0143 8.88443C84.1082 9.18844 84.421 9.40124 84.7651 9.40124L93.8059 9.37084C94.5567 9.37084 94.8673 10.3132 94.2752 10.7388L86.9572 15.9069C86.6778 16.0893 86.5818 16.4541 86.6778 16.7581L89.5268 25.1181C89.7458 25.7565 88.9325 26.3341 88.3381 25.9085H88.3314Z" fill="#D5F50A"/>
</g>
<g clip-path="url(#clip3_26_152)">
<path d="M121.538 25.9085L114.22 20.7405C113.94 20.5581 113.563 20.5581 113.312 20.7405L105.99 25.9693C105.396 26.3949 104.551 25.8173 104.801 25.1181L107.585 16.7581C107.634 16.6055 107.634 16.442 107.584 16.2898C107.534 16.1375 107.437 16.0039 107.306 15.9069L99.9523 10.7692C99.3267 10.3436 99.6395 9.40124 100.39 9.40124H109.431C109.595 9.3992 109.755 9.34868 109.889 9.25639C110.023 9.16409 110.125 9.03438 110.182 8.88443L112.935 0.524402C113.154 -0.174801 114.186 -0.174801 114.405 0.524402L117.221 8.88443C117.314 9.18844 117.627 9.40124 117.971 9.40124L127.012 9.37084C127.763 9.37084 128.074 10.3132 127.481 10.7388L120.163 15.9069C119.884 16.0893 119.788 16.4541 119.884 16.7581L122.733 25.1181C122.952 25.7565 122.139 26.3341 121.544 25.9085H121.538Z" fill="#D5F50A"/>
</g>
<g clip-path="url(#clip4_26_152)">
<path d="M154.744 25.9085L147.426 20.7405C147.147 20.5581 146.769 20.5581 146.519 20.7405L139.197 25.9693C138.602 26.3949 137.757 25.8173 138.008 25.1181L140.792 16.7581C140.841 16.6055 140.84 16.442 140.79 16.2898C140.74 16.1375 140.643 16.0039 140.513 15.9069L133.159 10.7692C132.533 10.3436 132.846 9.40124 133.597 9.40124H142.638C142.802 9.3992 142.962 9.34868 143.096 9.25639C143.23 9.16409 143.332 9.03438 143.388 8.88443L146.141 0.524402C146.361 -0.174801 147.393 -0.174801 147.612 0.524402L150.427 8.88443C150.521 9.18844 150.834 9.40124 151.178 9.40124L160.219 9.37084C160.97 9.37084 161.28 10.3132 160.688 10.7388L153.37 15.9069C153.091 16.0893 152.995 16.4541 153.091 16.7581L155.94 25.1181C156.159 25.7565 155.345 26.3341 154.751 25.9085H154.744Z" fill="#D5F50A"/>
</g>
<mask id="mask0_26_152" style="mask-type:alpha" maskUnits="userSpaceOnUse" x="132" y="0" width="29" height="27">
<g clip-path="url(#clip5_26_152)">
<path d="M154.744 25.9085L147.426 20.7405C147.147 20.5581 146.769 20.5581 146.519 20.7405L139.196 25.9693C138.602 26.3949 137.757 25.8173 138.008 25.1181L140.792 16.7581C140.84 16.6055 140.84 16.442 140.79 16.2898C140.74 16.1375 140.643 16.0039 140.512 15.9069L133.159 10.7692C132.533 10.3436 132.846 9.40124 133.597 9.40124H142.637C142.802 9.3992 142.961 9.34868 143.096 9.25639C143.23 9.16409 143.332 9.03438 143.388 8.88443L146.141 0.524402C146.361 -0.174801 147.392 -0.174801 147.611 0.524402L150.427 8.88443C150.521 9.18844 150.834 9.40124 151.178 9.40124L160.219 9.37084C160.969 9.37084 161.28 10.3132 160.688 10.7388L153.37 15.9069C153.09 16.0893 152.994 16.4541 153.09 16.7581L155.939 25.1181C156.158 25.7565 155.345 26.3341 154.751 25.9085H154.744Z" fill="white"/>
</g>
</mask>
<g mask="url(#mask0_26_152)">
<rect x="148.383" y="-4.08252" width="16.4802" height="33.6477" fill="#C9C9C9"/>
</g>
<defs>
<clipPath id="clip0_26_152">
<rect width="28.1749" height="26.1142" fill="white"/>
</clipPath>
<clipPath id="clip1_26_152">
<rect width="28.1749" height="26.1142" fill="white" transform="translate(33.2056)"/>
</clipPath>
<clipPath id="clip2_26_152">
<rect width="28.1749" height="26.1142" fill="white" transform="translate(66.4124)"/>
</clipPath>
<clipPath id="clip3_26_152">
<rect width="28.1749" height="26.1142" fill="white" transform="translate(99.6187)"/>
</clipPath>
<clipPath id="clip4_26_152">
<rect width="28.1749" height="26.1142" fill="white" transform="translate(132.825)"/>
</clipPath>
<clipPath id="clip5_26_152">
<rect width="28.1749" height="26.1142" fill="white" transform="translate(132.825)"/>
</clipPath>
</defs>
</svg>
