<svg id="Camada_1" data-name="Camada 1" xmlns="http://www.w3.org/2000/svg" viewBox="0 0 100 100"><defs><style>.cls-1{fill:#5d5d5d;}.cls-2{fill:#050b0f;}.cls-3,.cls-4{fill:#fff;}.cls-4{fill-rule:evenodd;}</style></defs><path class="cls-1" d="M50,98A48,48,0,1,0,2,50,48,48,0,0,0,50,98Z"/><path class="cls-2" d="M50,83A33,33,0,1,0,17,50,33,33,0,0,0,50,83Z"/><path class="cls-3" d="M20,30l-3.44-.13-.38.62,2.55,1.57-.81,1.31-6.53-4,1.51-2.45A3.3,3.3,0,0,1,14,25.76a2.13,2.13,0,0,1,1.21-.36,2.33,2.33,0,0,1,1.18.36,2.27,2.27,0,0,1,.93,1.1,2.16,2.16,0,0,1,0,1.55l3.62.08Zm-4.8-.12.68-1.1a1.28,1.28,0,0,0,.23-1,1.12,1.12,0,0,0-.55-.7A1,1,0,0,0,14.7,27a1.3,1.3,0,0,0-.74.64l-.68,1.09Z"/><path class="cls-3" d="M17.82,22.27l1.44,1.28L21,21.62l.92.81-1.72,1.93,1.52,1.35,1.94-2.18.94.83-3,3.34-5.75-5.11,2.95-3.33.94.83Z"/><path class="cls-3" d="M21.79,18.81a3.74,3.74,0,0,1,.26-2,4,4,0,0,1,1.27-1.61,4,4,0,0,1,2.19-.85A3.49,3.49,0,0,1,27.7,15l-1.41,1.08a1.84,1.84,0,0,0-1.09-.2,2.15,2.15,0,0,0-1,.46,2.21,2.21,0,0,0-.76,1,2.12,2.12,0,0,0-.1,1.2,2.8,2.8,0,0,0,.58,1.24,3,3,0,0,0,1.05.89,2.15,2.15,0,0,0,1.19.2,2.2,2.2,0,0,0,1.13-.47,2.24,2.24,0,0,0,.71-.9A1.81,1.81,0,0,0,28,18.37l1.41-1.08a3.41,3.41,0,0,1,0,2.27,4.18,4.18,0,0,1-3.27,2.71A3.63,3.63,0,0,1,24.27,22a3.9,3.9,0,0,1-1.64-1.29A4.11,4.11,0,0,1,21.79,18.81Z"/><path class="cls-3" d="M34.25,9.1l3.27,7-1.4.66-1.39-3-3,1.4,1.39,3-1.4.65-3.26-6.94,1.39-.66L31.22,14l3-1.4L32.85,9.76Z"/><path class="cls-3" d="M42.87,13.16l-3,.7-.15,1.54-1.58.37.92-8.11,1.74-.42,4.46,6.85-1.58.37Zm-.69-1.1L40.35,9.19,40,12.57Z"/><path class="cls-3" d="M49.94,13.94,48.14,11l-.73,0,.11,3L46,14.08l-.27-7.67,2.87-.1a3.28,3.28,0,0,1,1.53.26,2.11,2.11,0,0,1,1,.81,2.37,2.37,0,0,1,.36,1.18,2.2,2.2,0,0,1-1.67,2.27l1.95,3.05ZM47.37,9.88l1.29,0a1.31,1.31,0,0,0,.92-.34,1.13,1.13,0,0,0,.28-.85,1.13,1.13,0,0,0-.34-.81,1.32,1.32,0,0,0-.94-.25l-1.29,0Z"/><path class="cls-3" d="M58.86,9.51a1.77,1.77,0,0,0-.59-.85,2.15,2.15,0,0,0-1-.43A2.33,2.33,0,0,0,56,8.32a2.21,2.21,0,0,0-1,.73,2.77,2.77,0,0,0-.52,1.25,2.87,2.87,0,0,0,.07,1.38,2.14,2.14,0,0,0,.68,1,2.49,2.49,0,0,0,1.18.51A2.19,2.19,0,0,0,58,13a2.26,2.26,0,0,0,.95-1.16l-2.6-.45.2-1.16,4.1.7-.23,1.33a3.68,3.68,0,0,1-.9,1.35,3.74,3.74,0,0,1-1.47.86,3.9,3.9,0,0,1-1.84.1,4.06,4.06,0,0,1-1.89-.83,3.71,3.71,0,0,1-1.15-1.61A4,4,0,0,1,53,10a4,4,0,0,1,.85-1.91A3.64,3.64,0,0,1,55.44,7a4.33,4.33,0,0,1,4.17.85,3.26,3.26,0,0,1,1,2Z"/><path class="cls-3" d="M64.33,10l-.68,1.8,2.42.91-.43,1.14L63.22,13l-.71,1.91,2.72,1-.44,1.17L60.62,15.5l2.71-7.2L67.5,9.87,67.06,11Z"/><path class="cls-3" d="M70.61,18.64,68,17.06l-1.18,1-1.39-.83,6.32-5.18,1.54.92-1.59,8-1.39-.84Zm.27-1.28.7-3.32L69,16.22Z"/><path class="cls-3" d="M78.43,22.69a1.89,1.89,0,0,1-.51,1.18,2,2,0,0,1-1,.6,2,2,0,0,1-1.14,0,3.44,3.44,0,0,1-1.18-.71L72.2,21.48l5.17-5.68,2.34,2.13A3.26,3.26,0,0,1,80.54,19a2,2,0,0,1,.16,1.1,1.9,1.9,0,0,1-.47.95,1.74,1.74,0,0,1-1,.59,1.91,1.91,0,0,1-1.14-.17A1.71,1.71,0,0,1,78.43,22.69ZM76.16,23a.9.9,0,0,0,.73-.34.93.93,0,0,0,.28-.8,1.33,1.33,0,0,0-.47-.8l-1.12-1-1.39,1.53,1.14,1A1.32,1.32,0,0,0,76.16,23Zm.22-3.84,1,.94a1.26,1.26,0,0,0,.79.39,1,1,0,0,0,1-1.05,1.28,1.28,0,0,0-.46-.76l-1-.95Z"/><path class="cls-3" d="M79,26.61l1.58,2-1,.76-2.53-3.19,6-4.78,1,1.21Z"/><path class="cls-3" d="M86.36,28.05,84.7,29,86,31.25l-1,.62-1.31-2.23-1.75,1,1.46,2.52-1.08.63L80,30l6.64-3.87,2.24,3.85-1.08.63Z"/><path class="cls-3" d="M49.9,85.2l1.2,3.4h3.6l-2.9,2.1,1.1,3.5-3-2.2L47,94.2l1.1-3.5-2.9-2.1h3.6Z"/><path class="cls-3" d="M62.1,82.9l1.1,3.4h3.6l-2.9,2.1L65,91.9l-2.9-2.1-3,2.1,1.1-3.5-2.9-2.1h3.6Z"/><path class="cls-3" d="M37.4,82.9l1.1,3.4h3.6l-2.9,2.1,1.1,3.5-2.9-2.1-2.9,2.1,1.1-3.5-2.9-2.1h3.6Z"/><path class="cls-4" d="M49.9,47.54h6.72a.16.16,0,0,1,.16.16.14.14,0,0,1,0,.07L48.19,63.85a.16.16,0,0,1-.22.06.15.15,0,0,1-.08-.17L50.1,52.46H43.38a.16.16,0,0,1-.16-.16.14.14,0,0,1,0-.07l8.58-16.08a.16.16,0,0,1,.29.11Zm14.66,10.4-1.31,1.31,4.17,4.16,1.3-1.31L68,61.38l1.57-1.57a.57.57,0,0,0,0-.79.56.56,0,0,0-.79,0l-1.57,1.56-1.13-1.12,1.57-1.57a.56.56,0,0,0-.79-.79l-1.57,1.57-.73-.73Zm-1.89,2.31-.61,2-.84.84a1.08,1.08,0,0,0,0,1.51l.12.11a18.61,18.61,0,1,1,4.28-24.88l-2.92-.65a.56.56,0,0,0-.24,1.09l4.19.92a.55.55,0,0,0,.66-.42l.92-4.18a.55.55,0,0,0-1.08-.24l-.63,2.82a19.73,19.73,0,1,0-4.38,26.33,1.08,1.08,0,0,0,1.39-.11l.83-.83,2-.62Z"/></svg>