<svg id="Camada_1" data-name="Camada 1" xmlns="http://www.w3.org/2000/svg" viewBox="0 0 100 100"><defs><style>.cls-1{fill:#5d5d5d;}.cls-2{fill:#050b0f;}.cls-3{fill:#fff;}</style></defs><path class="cls-1" d="M50,98A48,48,0,1,0,2,50,48,48,0,0,0,50,98Z"/><path class="cls-2" d="M50,83A33,33,0,1,0,17,50,33,33,0,0,0,50,83Z"/><path class="cls-3" d="M10.54,58.07a2.12,2.12,0,0,1,1.08.65,3.24,3.24,0,0,1,.74,1.42l.34,1.24,2.84-.79L16,62.08l-7.4,2L7.8,61.4a3.47,3.47,0,0,1-.11-1.54,2.21,2.21,0,0,1,.57-1.14,2.44,2.44,0,0,1,2.28-.65Zm.11,1.63a1.1,1.1,0,0,0-.88-.08c-.72.2-1,.7-.74,1.51l.32,1.18,2.15-.6-.32-1.18A1.33,1.33,0,0,0,10.65,59.7Z"/><path class="cls-3" d="M13.74,54.39a3.75,3.75,0,0,1-1.3,1.52,3.93,3.93,0,0,1-2,.66A3.83,3.83,0,0,1,6.9,54.84a4,4,0,0,1-.63-1.94,3.89,3.89,0,0,1,.37-2A3.68,3.68,0,0,1,8,49.38a3.89,3.89,0,0,1,2-.66,3.91,3.91,0,0,1,2.06.39,3.83,3.83,0,0,1,1.5,1.32,4.11,4.11,0,0,1,.26,4Zm-1.39-3.12a2.11,2.11,0,0,0-.95-.76A3,3,0,0,0,10,50.3a2.88,2.88,0,0,0-1.32.39,2,2,0,0,0-.83.88A2.56,2.56,0,0,0,8,54a2.1,2.1,0,0,0,.94.77,3,3,0,0,0,1.36.21,2.92,2.92,0,0,0,1.33-.39,2.06,2.06,0,0,0,.84-.89,2.32,2.32,0,0,0,.23-1.24A2.38,2.38,0,0,0,12.35,51.27Z"/><path class="cls-3" d="M8.18,36.2l7.11,3.6-.36,1.78-5.64.35,5.07,2.54L14,46.24l-7.94.53.32-1.62L12.5,45,7,42.29l.34-1.68,6.1-.29L7.85,37.83Z"/><path class="cls-3" d="M11,33.15l1.75.79,1.06-2.36,1.12.5-1.07,2.36,1.86.83,1.2-2.65,1.14.51-1.83,4.06L9.24,34,11.07,30l1.14.51Z"/><path class="cls-3" d="M20.79,28.87l-3.43-.27-.41.61,2.49,1.67-.86,1.28-6.37-4.29,1.61-2.39a3.45,3.45,0,0,1,1.1-1.09,2.16,2.16,0,0,1,1.23-.3,2.35,2.35,0,0,1,1.17.4,2.31,2.31,0,0,1,.89,1.13,2.27,2.27,0,0,1,0,1.56l3.61.21ZM16,28.56l.71-1.06a1.24,1.24,0,0,0,.27-.95,1.1,1.1,0,0,0-.52-.72,1.07,1.07,0,0,0-.85-.21,1.33,1.33,0,0,0-.77.62l-.72,1.06Z"/><path class="cls-3" d="M20.2,17.91l.9.85-2.21,2.32,1.42,1.36L22,20.67l.88.84L21.2,23.28l2.34,2.24-1.06,1.12-5.55-5.31Z"/><path class="cls-3" d="M23,15.57l2.79,3.84a1.68,1.68,0,0,0,1,.73A1.55,1.55,0,0,0,28,19.8a1.58,1.58,0,0,0,.69-1,1.64,1.64,0,0,0-.37-1.21l-2.8-3.84,1.26-.91,2.79,3.83a3.13,3.13,0,0,1,.63,1.59,2.76,2.76,0,0,1-.32,1.49,3.61,3.61,0,0,1-1.08,1.2,3.45,3.45,0,0,1-1.46.64,2.64,2.64,0,0,1-1.49-.17,3.18,3.18,0,0,1-1.3-1.1l-2.79-3.84Z"/><path class="cls-3" d="M33.21,16.74l2.27-1.12L36,16.71l-3.64,1.81L29,11.64,30.35,11Z"/><path class="cls-3" d="M37.83,8.05a2.85,2.85,0,0,1,1.7-1A3.07,3.07,0,0,1,40.93,7a2,2,0,0,1,1,.53,2.09,2.09,0,0,1,.54,1,1.86,1.86,0,0,1-.07,1.22,1.75,1.75,0,0,1-.67.83v0a1.87,1.87,0,0,1,1.13.45,2.22,2.22,0,0,1,.66,1.18,2.25,2.25,0,0,1,0,1.21,2.12,2.12,0,0,1-.67,1,3.33,3.33,0,0,1-1.31.62,3.17,3.17,0,0,1-2.11-.13,2.35,2.35,0,0,1-1.24-1.6l1.45-.36a1.19,1.19,0,0,0,.56.75,1.32,1.32,0,0,0,1,.09,1.16,1.16,0,0,0,.76-.51,1.08,1.08,0,0,0,.1-.85,1,1,0,0,0-.63-.82,2.32,2.32,0,0,0-1.33,0l-.31.07-.3-1.23.31-.07c1-.25,1.44-.71,1.27-1.39a1,1,0,0,0-.44-.65,1.15,1.15,0,0,0-.85-.06,1.06,1.06,0,0,0-.71.46,1.12,1.12,0,0,0-.15.77l-1.46.35A2.23,2.23,0,0,1,37.83,8.05Z"/><path class="cls-3" d="M49.54,9.32l.09,1.3L45,10.93l-.08-1.3Z"/><path class="cls-3" d="M52.49,13.82a2.37,2.37,0,0,1-.93-.9,2,2,0,0,1-.25-1.25l1.64.18a1.06,1.06,0,0,0,.25.77A1.18,1.18,0,0,0,54,13a1.28,1.28,0,0,0,.87-.17.85.85,0,0,0,.38-.64.82.82,0,0,0-.15-.58,1.58,1.58,0,0,0-.48-.4,8.06,8.06,0,0,0-.83-.37,9.85,9.85,0,0,1-1.16-.56,2.13,2.13,0,0,1-.73-.73,1.88,1.88,0,0,1-.21-1.19,2,2,0,0,1,.47-1.15,2.18,2.18,0,0,1,1-.67,3.51,3.51,0,0,1,1.43-.11,3,3,0,0,1,1.86.78,2.15,2.15,0,0,1,.64,1.69l-1.69-.18A.85.85,0,0,0,55.17,8a1.32,1.32,0,0,0-.8-.35,1.05,1.05,0,0,0-.74.16.83.83,0,0,0-.34.63.7.7,0,0,0,.15.53,1.53,1.53,0,0,0,.47.39c.19.1.46.23.81.38a9.2,9.2,0,0,1,1.17.57,2.1,2.1,0,0,1,.74.74,1.87,1.87,0,0,1,.21,1.18,2.16,2.16,0,0,1-.44,1.11,2.2,2.2,0,0,1-1,.73,3.11,3.11,0,0,1-1.49.16A3.6,3.6,0,0,1,52.49,13.82Z"/><path class="cls-3" d="M63.87,12.19a2.12,2.12,0,0,1-1.12.58,3.19,3.19,0,0,1-1.59-.12l-1.24-.36-.83,2.83-1.48-.44,2.16-7.37,2.71.8a3.49,3.49,0,0,1,1.37.72,2.12,2.12,0,0,1,.67,1.08,2.46,2.46,0,0,1,0,1.26A2.42,2.42,0,0,1,63.87,12.19Zm-1.44-.77a1.09,1.09,0,0,0,.53-.7c.21-.72-.09-1.19-.89-1.43L60.9,9l-.63,2.14,1.17.35A1.32,1.32,0,0,0,62.43,11.42Z"/><path class="cls-3" d="M67.89,11.48l-.83,1.74,2.33,1.12-.53,1.1-2.33-1.12-.89,1.83,2.63,1.27-.55,1.13-4-1.94,3.34-6.93,4,1.94-.54,1.13Z"/><path class="cls-3" d="M73.61,14.7l-1.09,1.58,2.13,1.47-.69,1-2.13-1.46L70.67,19l2.4,1.66-.71,1-3.67-2.53,4.37-6.33,3.66,2.53-.71,1Z"/><path class="cls-3" d="M81.73,20.58a3.33,3.33,0,0,1,0,2,3.88,3.88,0,0,1-1.08,1.79,3.83,3.83,0,0,1-1.78,1.07,3.33,3.33,0,0,1-2-.05,4.7,4.7,0,0,1-1.84-1.17l-1.89-1.9,5.42-5.43,1.9,1.9A4.56,4.56,0,0,1,81.73,20.58Zm-3.92,3.48a2.53,2.53,0,0,0,1.78-.85,2.56,2.56,0,0,0,.86-1.79,2.49,2.49,0,0,0-.85-1.8l-.77-.77-3.58,3.58.77.77A2.54,2.54,0,0,0,77.81,24.06Z"/><path class="cls-3" d="M84.87,29.06l-1.08.73-2.61-3.87,1.07-.72Z"/><path class="cls-3" d="M92.13,37.65,85,40.5l-.57-1.43,4.64-1.86-5.4-.05-.43-1.09,3.87-3.77-4.64,1.85-.57-1.43L89,29.87l.65,1.63-4.4,4.38,6.21.15Z"/><path class="cls-3" d="M85.86,43.11a3.68,3.68,0,0,1,1.2-1.61,4.14,4.14,0,0,1,4-.55,3.66,3.66,0,0,1,1.58,1.22,4,4,0,0,1,.77,1.89,4,4,0,0,1-.23,2A3.77,3.77,0,0,1,92,47.7a4.2,4.2,0,0,1-4,.55A3.83,3.83,0,0,1,86.4,47a4.05,4.05,0,0,1-.77-1.9A3.94,3.94,0,0,1,85.86,43.11Zm1.61,3a2.23,2.23,0,0,0,1,.69,3,3,0,0,0,1.38.11,2.94,2.94,0,0,0,1.3-.48,2.1,2.1,0,0,0,.76-.94,2.58,2.58,0,0,0-.33-2.42,2.12,2.12,0,0,0-1-.7,2.85,2.85,0,0,0-1.38-.11,2.94,2.94,0,0,0-1.3.48,2.06,2.06,0,0,0-.77.94,2.52,2.52,0,0,0,.33,2.43Z"/><path class="cls-3" d="M93,55.19A3.36,3.36,0,0,1,91.5,56.5a4.1,4.1,0,0,1-2.06.33,4,4,0,0,1-2-.67,3.42,3.42,0,0,1-1.22-1.53A4.57,4.57,0,0,1,86,52.47l.22-2.67,7.65.64-.22,2.67A4.52,4.52,0,0,1,93,55.19Zm-5.19-.74a2.54,2.54,0,0,0,1.8.81,2.59,2.59,0,0,0,1.92-.5A2.5,2.5,0,0,0,92.32,53l.09-1.09-5-.42-.09,1.09A2.54,2.54,0,0,0,87.77,54.45Z"/><path class="cls-3" d="M91.16,60.5,89.3,60l-.68,2.5-1.18-.32.68-2.5-2-.53L85.39,62l-1.21-.33,1.17-4.29,7.42,2-1.17,4.3-1.21-.33Z"/><path class="cls-3" d="M49.9,85.2l1.2,3.4h3.6l-2.9,2.1,1.1,3.5-3-2.2L47,94.2l1.1-3.5-2.9-2.1h3.6Z"/><path class="cls-3" d="M62.1,82.9l1.1,3.4h3.6l-2.9,2.1L65,91.9l-2.9-2.1-3,2.1,1.1-3.5-2.9-2.1h3.6Z"/><path class="cls-3" d="M37.4,82.9l1.1,3.4h3.6l-2.9,2.1,1.1,3.5-2.9-2.1-2.9,2.1,1.1-3.5-2.9-2.1h3.6Z"/><path class="cls-3" d="M72.74,55.08A22.79,22.79,0,0,0,66.1,42.91l-.4.4L60,49a13.94,13.94,0,0,1,3.62,6.65A1.42,1.42,0,0,0,65,56.79h6.34a1.45,1.45,0,0,0,1.11-.5,1.27,1.27,0,0,0,.3-1.21ZM51,36.47V45a14.07,14.07,0,0,1,7.44,2.82l6.14-6.14A22.54,22.54,0,0,0,51,36.47ZM34.3,43.41l-.4-.5a23.54,23.54,0,0,0-6.64,12.17,1.33,1.33,0,0,0,.3,1.21,1.63,1.63,0,0,0,1.11.5H35a1.42,1.42,0,0,0,1.41-1.1A13.94,13.94,0,0,1,40,49Zm1.11-1.81,6.14,6.14a.35.35,0,0,1,.2-.1,2,2,0,0,1,.5-1.51,2.62,2.62,0,0,1,2-1,3,3,0,0,1,1.51.5,13.22,13.22,0,0,1,3.32-.7V36.37A23.89,23.89,0,0,0,35.41,41.6ZM50,52.16a3.5,3.5,0,0,0-1,.1c-1.4-1.51-3.62-4-4.42-4.93-.31-.3-.91,0-.81.41.2.7-.1-.41,1.91,6.44a5.53,5.53,0,0,0-1.41,3.72A5.8,5.8,0,0,0,50,63.63a5.74,5.74,0,1,0,0-11.47Zm0,8.25a2.27,2.27,0,0,1-2.31-2.31A2.33,2.33,0,0,1,50,55.79a2.27,2.27,0,0,1,2.31,2.31A2.33,2.33,0,0,1,50,60.41Z"/></svg>