<svg width="28" height="25" viewBox="0 0 28 25" fill="none" xmlns="http://www.w3.org/2000/svg">
<g clip-path="url(#clip0_6_533)">
<path d="M27.8857 11.9863C27.8816 11.4488 27.6392 10.9336 27.2096 10.5494L15.8507 0.609824C15.4074 0.219798 14.8053 -0.000172647 14.1767 -0.00169857C13.5481 -0.0032245 12.9445 0.21382 12.4988 0.601689C12.0531 0.989556 11.8017 1.51648 11.7999 2.06653C11.7982 2.61659 12.0462 3.14472 12.4895 3.53474L22.1759 12.0122L12.4895 20.4882C12.2701 20.6811 12.0962 20.91 11.9779 21.1617C11.8595 21.4134 11.799 21.683 11.7997 21.9552C11.8005 22.2274 11.8625 22.4968 11.9822 22.748C12.1019 22.9993 12.277 23.2274 12.4975 23.4194C12.718 23.6114 12.9795 23.7635 13.2672 23.8671C13.5549 23.9706 13.863 24.0236 14.1741 24.0229C14.4851 24.0223 14.793 23.968 15.0801 23.8633C15.3672 23.7585 15.6279 23.6053 15.8473 23.4124L27.2062 13.4728C27.4262 13.2765 27.5992 13.0438 27.7153 12.7883C27.8314 12.5329 27.8882 12.2597 27.8824 11.9848L27.8857 11.9863Z" fill="#ffffff"/>
</g>
<g clip-path="url(#clip1_6_533)">
<path d="M16.0876 11.9863C16.0835 11.4488 15.8411 10.9336 15.4115 10.5494L4.05259 0.609824C3.60934 0.219798 3.00717 -0.000172647 2.37857 -0.00169857C1.74997 -0.0032245 1.14642 0.21382 0.700694 0.601689C0.254971 0.989558 0.00359001 1.51648 0.00184663 2.06653C0.000103262 2.61659 0.248141 3.14472 0.691398 3.53474L10.3778 12.0122L0.691396 20.4882C0.471973 20.6811 0.298125 20.91 0.179777 21.1617C0.0614302 21.4134 0.000902413 21.683 0.00164816 21.9552C0.0023939 22.2274 0.064398 22.4968 0.184123 22.748C0.303848 22.9993 0.478948 23.2274 0.699425 23.4194C0.919902 23.6114 1.18144 23.7635 1.4691 23.8671C1.75677 23.9706 2.06493 24.0236 2.37598 24.0229C2.68704 24.0223 2.9949 23.968 3.28199 23.8633C3.56909 23.7585 3.82979 23.6053 4.04921 23.4124L15.4081 13.4728C15.6281 13.2765 15.8011 13.0438 15.9172 12.7883C16.0333 12.5329 16.0901 12.2597 16.0843 11.9848L16.0876 11.9863Z" fill="#ffffff"/>
</g>
<defs>
<clipPath id="clip0_6_533">
<rect x="27.8857" y="24.0243" width="16.0876" height="24.0243" rx="6" transform="rotate(-180 27.8857 24.0243)" fill="#000000"/>
</clipPath>
<clipPath id="clip1_6_533">
<rect x="16.0876" y="24.0243" width="16.0876" height="24.0243" rx="6" transform="rotate(-180 16.0876 24.0243)" fill="#000000"/>
</clipPath>
</defs>
</svg>
