<svg id="Camada_1" data-name="Camada 1" xmlns="http://www.w3.org/2000/svg" viewBox="0 0 952 952"><defs><style>.cls-1{fill:#ffd519;}</style></defs><path class="cls-1" d="M112.37,387.39a24,24,0,0,0,18.33-.12L202.35,357a24,24,0,0,0-18.63-44.14l-17.53,7.4a343.33,343.33,0,0,1,646.71,52.2,24,24,0,0,0,46.38-12,391.22,391.22,0,0,0-738-57.09l-8.09-19.17a24,24,0,1,0-44.13,18.63l30.23,71.64a23.92,23.92,0,0,0,13.05,12.88ZM882.92,644.28l-30.24-71.64a24,24,0,0,0-31.38-12.76l-71.65,30.25a24,24,0,1,0,18.63,44.13l20.06-8.47a343.32,343.32,0,0,1-649.23-46.28,24,24,0,0,0-46.38,12,391.22,391.22,0,0,0,739,54.67l7.06,16.73a24,24,0,0,0,44.14-18.63Z"/><path class="cls-1" d="M538.28,226.89H413.72a24,24,0,0,0-24,24V294H371.2a39.15,39.15,0,0,0-38.92,39.28v352.6a39.15,39.15,0,0,0,38.92,39.28H580.8a39.15,39.15,0,0,0,38.92-39.28V333.24A39.15,39.15,0,0,0,580.8,294H562.23V250.84A24,24,0,0,0,538.28,226.89Zm-9.86,271.35-53.75,67a24,24,0,0,1-37.37-30l22.51-28H442.25a24,24,0,0,1-18.77-38.83L473.71,405a24,24,0,1,1,37.55,29.74l-19.48,24.6h18a24,24,0,0,1,18.69,38.94Z"/></svg>