<svg id="Camada_1" data-name="Camada 1" xmlns="http://www.w3.org/2000/svg" viewBox="0 0 952 952"><defs><style>.cls-1{fill:#ffd519;}</style></defs><path class="cls-1" d="M424.88,421.86A212.2,212.2,0,0,0,336,402.32C218,402.32,122.3,498,122.3,616S218,829.7,336,829.7a212.24,212.24,0,0,0,88.88-19.55,271.94,271.94,0,0,1,0-388.29Z"/><path class="cls-1" d="M810.15,527.09a271.87,271.87,0,0,1-388.29,0A212.44,212.44,0,0,0,402.32,616C402.32,734,498,829.7,616,829.7S829.7,734,829.7,616a212.48,212.48,0,0,0-19.55-88.91Z"/><path class="cls-1" d="M616,122.3a212.48,212.48,0,0,0-88.91,19.55,271.87,271.87,0,0,1,0,388.29A212.44,212.44,0,0,0,616,549.68C734,549.68,829.7,454,829.7,336S734,122.3,616,122.3Z"/><path class="cls-1" d="M336,122.3C218,122.3,122.3,218,122.3,336a212.24,212.24,0,0,0,19.55,88.88,271.94,271.94,0,0,1,388.29,0A212.2,212.2,0,0,0,549.68,336C549.68,218,454,122.3,336,122.3Z"/></svg>