<svg id="Camada_1" data-name="Camada 1" xmlns="http://www.w3.org/2000/svg" viewBox="0 0 952 952"><defs><style>.cls-1{fill:#ffd519;}</style></defs><path class="cls-1" d="M781.13,436.68l-.07-142.31c0-42.38-36.09-76.87-78.47-76.87a89.85,89.85,0,0,0-31,5.88V201.16c0-40.78-30-74.27-70.73-74.27H595c-8.64,0-20.32,2.38-28,5.11-1.28-42.36-31.69-66.91-70.19-66.91h-5.84c-40.77,0-66.55,32.39-66.55,73.17v5.67c-13.63-5.49-22.77-6.74-31.05-6.74h-5.84c-40.78,0-76.4,36-76.4,76.74V415.31c-10.3-8.07-19.36-14.14-31.68-17.61a85.27,85.27,0,0,0-65.77,7.89C171.93,429,157.13,481.73,180,523.6c5.51,11.83,19.71,43.41,23.89,59.19,14.18,53.48,36,122.68,79,183.75C339,846.43,414.17,886.92,506.29,886.91c1.52,0,3.09,0,4.62,0,84.51-1.24,147.13-23.34,191.45-67.6,51.83-51.77,80.38-119.74,80.38-191.57ZM667.37,784.26c-34.75,34.71-86.15,52.1-157.17,53.13l-3.84,0c-123.54,0-206.82-87.5-254.49-267.32C245.69,546.79,224,500.26,224,500.26a37.83,37.83,0,1,1,66-37L367.6,592.9a24.66,24.66,0,1,0,42.24-25.44L362.59,489v-275c0-13.47,11.42-25.24,24.9-25.24h5.84c13.47,0,31.05,11.77,31.05,25.24V442.29C424.38,456,431.32,467,445,467s20.6-11.08,20.6-24.75v-304c0-13.47,7.31-32,20.79-32h10.4c13.48,0,20.31,18.5,20.31,32v316c0,13.67,12.08,24.75,25.75,24.75s25.75-11.08,25.75-24.75V199.56c-1.7-15.31,9.38-31.47,22.32-31.47h5.84c13.47,0,23.34,19.59,23.34,33.07v277c0,13.67,12.08,24.75,25.75,24.75s25.75-11.08,25.75-24.75v-174c-1.29-25.38,17.63-37.2,32.72-37.2s29.07,12.29,29.07,27.38V426.28l.77,201.64c0,58.39-24.3,113.92-66.77,156.34Z"/></svg>