<svg id="Camada_1" data-name="Camada 1" xmlns="http://www.w3.org/2000/svg" viewBox="0 0 200 50"><defs><style>.cls-1{fill:#121212;}.cls-2{fill:#fdcf00;}</style></defs><path class="cls-1" d="M46.5,17.67a7.16,7.16,0,0,0-1.56-1.19,3.54,3.54,0,0,0-1.67-.37,2.24,2.24,0,0,0-1.31.44,1.38,1.38,0,0,0-.65,1.18c0,.68.47,1.23,1.41,1.63s1.93.81,2.93,1.19a6.71,6.71,0,0,1,2.64,1.9,5.93,5.93,0,0,1,1.1,3.87,6.34,6.34,0,0,1-2,5,7.12,7.12,0,0,1-5,1.77,9.49,9.49,0,0,1-3.38-.61,8.14,8.14,0,0,1-2.9-1.8l2.7-3.84a4.11,4.11,0,0,0,3.39,1.63A3,3,0,0,0,43.89,28a1.46,1.46,0,0,0,.76-1.35c0-.69-.47-1.25-1.42-1.66l-1.46-.61-.74-.3-.76-.32a6.69,6.69,0,0,1-2.62-1.9,5.62,5.62,0,0,1-1.09-3.77,5.93,5.93,0,0,1,.94-3.35A6.08,6.08,0,0,1,40,12.57a7,7,0,0,1,3.2-.74,8.33,8.33,0,0,1,3.09.6A8.63,8.63,0,0,1,49,14.17Z"/><path class="cls-1" d="M68.06,29.84a10.45,10.45,0,0,1-2.18,1.81,9.57,9.57,0,0,1-10,0,10.41,10.41,0,0,1-3.66-3.85,11.28,11.28,0,0,1,0-10.7,10.39,10.39,0,0,1,3.66-3.87,9.57,9.57,0,0,1,10,0A10.24,10.24,0,0,1,68,15L64.75,18.4a5.6,5.6,0,0,0-1.19-1.1,4.7,4.7,0,0,0-5.39,0,6.14,6.14,0,0,0-2,2.23,6.32,6.32,0,0,0-.71,2.92,6.23,6.23,0,0,0,.73,2.93,6.05,6.05,0,0,0,2,2.23,4.65,4.65,0,0,0,5.36,0,5.56,5.56,0,0,0,1.23-1.16Z"/><path class="cls-1" d="M69.51,32.58V12.3h5.66a13.15,13.15,0,0,1,4.25.63,5.68,5.68,0,0,1,2.85,2,6,6,0,0,1,1,3.62,6,6,0,0,1-.89,3.12,4.54,4.54,0,0,1-2.36,2l5,8.88H79.25l-4.7-9.11h-.06v9.08Zm5-10.28a6.21,6.21,0,0,0,2.09-.3,2.57,2.57,0,0,0,1.28-1,3.05,3.05,0,0,0,.44-1.71,2.3,2.3,0,0,0-.94-2.15,5.74,5.74,0,0,0-2.87-.57Z"/><path class="cls-1" d="M102.36,12.31V25.58a7.21,7.21,0,0,1-1.12,4,7.07,7.07,0,0,1-3.08,2.6,10.68,10.68,0,0,1-4.53.91,10.39,10.39,0,0,1-4.18-.78,5.92,5.92,0,0,1-2.79-2.38,7.39,7.39,0,0,1-1-4V12.3h5V24.5a6.88,6.88,0,0,0,.27,2.05,2.71,2.71,0,0,0,1,1.4,2.9,2.9,0,0,0,1.86.53c1.48,0,2.46-.43,2.92-1.3a8.28,8.28,0,0,0,.69-3.77V12.3Z"/><path class="cls-1" d="M103.8,12.3h6a16.09,16.09,0,0,1,4.12.5,6.34,6.34,0,0,1,3,1.69A4.35,4.35,0,0,1,118,17.63a4.51,4.51,0,0,1-.75,2.59,4.46,4.46,0,0,1-2,1.66V22a5.47,5.47,0,0,1,2.44,1.91,5.37,5.37,0,0,1,.7,1.42,5.8,5.8,0,0,1,.24,1.69,5,5,0,0,1-1.89,4.09q-1.91,1.56-5.76,1.56H103.8Zm5.23,4v4.11h1.32a2.65,2.65,0,0,0,1.83-.56,1.92,1.92,0,0,0,.62-1.54,1.68,1.68,0,0,0-.77-1.55,3.63,3.63,0,0,0-1.87-.46Zm0,8.11v4.24h1.39c2,0,3-.7,3-2.08a1.76,1.76,0,0,0-.81-1.73,4.75,4.75,0,0,0-2.26-.43Z"/><path class="cls-1" d="M138,32.64,125.09,22.25l0,10.33h-5V12L133,21.68V12.3l5,0Z"/><path class="cls-1" d="M139.48,12.31h5V32.62h-5Z"/><path class="cls-1" d="M163.84,32.64,150.91,22.25V32.58h-5V12l13,9.67V12.3l5,0Z"/><path class="cls-1" d="M170.16,12.27V31.86h0a7.94,7.94,0,0,1-.33,1.88A9.51,9.51,0,0,1,167,38a11,11,0,0,1-4.79,2.51,13,13,0,0,1-2.13.3V36.48l.63-.1.19,0h0l.05,0A6,6,0,0,0,163.59,35a5.3,5.3,0,0,0,1.55-2.34,8.78,8.78,0,0,0,.18-1h0V12.27Z"/><path class="cls-1" d="M186.87,29h-8.12l-2,3.61h-5.15L182.82,12,194,32.62h-5.14Zm-2.06-3.75-2-3.61-2,3.61Z"/><path class="cls-2" d="M34.17,23.29a14.09,14.09,0,1,1-14-14.12A14.15,14.15,0,0,1,34.17,23.29ZM19.89,11l0-.12c-.38,0-.75,0-1.12.08A12,12,0,0,0,8.59,18.77,8.09,8.09,0,0,0,9.54,27,11.87,11.87,0,0,0,22.9,30.91a3.06,3.06,0,0,1,.36-.08c-.16.15-.23.22-.31.28a8.42,8.42,0,0,1-7.45,1.76,12.68,12.68,0,0,1-5.59-3c-.11-.1-.23-.19-.35-.28a.79.79,0,0,0,.16.43,12.12,12.12,0,0,0,12,5.5,8.16,8.16,0,0,0,6.45-4.17,10.38,10.38,0,0,0,1.25-6.59A11.46,11.46,0,0,0,25.32,17L25,16.78a8.09,8.09,0,0,1,5.42,4.92,12.45,12.45,0,0,1,.41,7.2c0,.11,0,.23,0,.34a.37.37,0,0,0,.19-.18,12.13,12.13,0,0,0-.46-12.38,8.86,8.86,0,0,0-6.31-4.4,8.39,8.39,0,0,0-4.81.64,11.93,11.93,0,0,0-6.95,7.27,22,22,0,0,0-.53,2.16,8.55,8.55,0,0,1,1.84-7.55,12.4,12.4,0,0,1,5.72-3.64Z"/><path class="cls-2" d="M15.15,21.18a4.13,4.13,0,0,0,1.25,3.71c0-.15-.11-.3-.16-.46a4.7,4.7,0,0,1,.91-5.11,4.49,4.49,0,0,1,7,.64,4.45,4.45,0,0,0-3.77-.75c3,.73,5.08,2.22,4.66,5.61a4.68,4.68,0,0,1-3.8,3.55,6,6,0,0,0,.85-.7,15.35,15.35,0,0,0,1.06-1.35c.06-.08,0-.23,0-.35-.1.05-.24.07-.31.15a4.78,4.78,0,0,1-3.08,1.76,4.63,4.63,0,0,1-5.09-3.68A4.8,4.8,0,0,1,15.15,21.18Z"/></svg>