<svg viewBox="0 0 36 36" xmlns="http://www.w3.org/2000/svg" xml:space="preserve" style="fill-rule:evenodd;clip-rule:evenodd;stroke-linejoin:round;stroke-miterlimit:1.41421">
  <defs>
    <linearGradient id="a" x1="0" y1="0" x2="1" y2="0" gradientUnits="userSpaceOnUse" gradientTransform="matrix(0 32.5134 -31.5665 0 2399.53 7095.13)">
      <stop offset="0" style="stop-color:#5be590"/>
      <stop offset="1" style="stop-color:#17ba55"/>
    </linearGradient>
  </defs>
  <path d="M2417.26 7103.16c0-4.62-3.67-8.38-8.2-8.38h-16.39c-4.52 0-8.2 3.76-8.2 8.38v16.76c0 4.63 3.68 8.38 8.2 8.38h16.39c4.53 0 8.2-3.75 8.2-8.38z" style="fill:url(#a)" transform="matrix(.97601 0 0 .95482 -2325.3 -6772.868)"/>
  <path d="m633.245 279.616 2.306 3.995a.8.8 0 0 1-.293 1.092l-1.385.8a.8.8 0 0 1-1.093-.293l-2.306-3.994-1.872 1.482-.043.032a.9.9 0 0 1-.297.12c-.054.007-.053.007-.107.01a1 1 0 0 1-.16-.013c-.213-.049-.423-.111-.634-.168a.75.75 0 0 1-.546-.599c-.467-3.573-.665-7.176-.996-10.764a.8.8 0 0 1 .046-.336.76.76 0 0 1 .763-.481c.117.01.222.049.323.104 3.019 1.968 5.885 4.161 8.826 6.242a.75.75 0 0 1 .304.751c-.048.214-.111.425-.168.637a.75.75 0 0 1-.448.503z" style="fill:#fff" transform="translate(-649.99 -276.968)scale(1.05867)"/>
</svg>
