<?xml version="1.0" encoding="utf-8"?>
<!-- Generator: Adobe Illustrator 26.4.1, SVG Export Plug-In . SVG Version: 6.00 Build 0)  -->
<svg version="1.1" id="Layer_1" xmlns="http://www.w3.org/2000/svg" xmlns:xlink="http://www.w3.org/1999/xlink" x="0px" y="0px"
	 viewBox="0 0 268.2 34" style="enable-background:new 0 0 268.2 34;" xml:space="preserve">
<style type="text/css">
	.st0{fill:#3C3C3B;}
	.st1{fill:#E9580C;}
</style>
<g>
	<g>
		<path class="st0" d="M56.9,21.9H44.8v2.9h-2.3V10.4h14.5c0.6,0,1.2,0.1,1.8,0.4s1,0.6,1.4,1s0.7,0.9,1,1.4s0.4,1.1,0.4,1.8v2.5
			c0,0.6-0.1,1.2-0.4,1.7s-0.6,1-1,1.4c-0.4,0.4-0.9,0.7-1.4,1C58.1,21.8,57.5,21.9,56.9,21.9z M59.1,16.7v-1.1
			c0-0.4-0.1-0.8-0.2-1.1c-0.1-0.3-0.3-0.7-0.5-0.9c-0.2-0.3-0.6-0.5-0.9-0.6c-0.4-0.2-0.9-0.2-1.5-0.2H44.8v6.9H56
			c0.6,0,1-0.1,1.4-0.2c0.4-0.1,0.7-0.4,1-0.6c0.2-0.3,0.4-0.6,0.5-0.9C59,17.5,59.1,17.1,59.1,16.7z"/>
		<path class="st0" d="M86.4,10.4v9.9c0,0.6-0.1,1.2-0.4,1.7c-0.2,0.5-0.6,1-1,1.4c-0.4,0.4-0.9,0.7-1.4,1s-1.1,0.3-1.8,0.3h-10
			c-0.6,0-1.2-0.1-1.7-0.3c-0.5-0.2-1-0.6-1.4-1c-0.4-0.4-0.7-0.9-1-1.4c-0.2-0.5-0.4-1.1-0.4-1.7v-9.9h2.3v9.1
			c0,0.5,0.1,0.9,0.2,1.2c0.2,0.4,0.4,0.7,0.7,0.9c0.3,0.3,0.6,0.5,1,0.6c0.4,0.1,0.8,0.2,1.1,0.2H81c0.4,0,0.8-0.1,1.2-0.2
			c0.4-0.1,0.7-0.3,1-0.6c0.3-0.3,0.5-0.6,0.7-0.9C84,20.4,84,20,84,19.5v-9.1H86.4z"/>
		<path class="st0" d="M92.4,24.8l0-14.4h2.3v12.1h15.9v2.3L92.4,24.8z"/>
		<path class="st0" d="M133.9,15.4c0-0.3-0.1-0.6-0.2-0.9c-0.1-0.3-0.3-0.6-0.6-0.9c-0.3-0.3-0.6-0.5-0.9-0.7
			c-0.4-0.2-0.8-0.3-1.3-0.3h-9.4c-0.3,0-0.7,0.1-1,0.1c-0.3,0.1-0.6,0.2-0.8,0.4c-0.2,0.2-0.4,0.4-0.6,0.7c-0.1,0.3-0.2,0.6-0.2,1
			c0,0.5,0.2,0.9,0.7,1.2c0.4,0.3,1.1,0.4,2.1,0.4h10c0.6,0,1.2,0.1,1.8,0.2s1,0.4,1.4,0.7c0.4,0.3,0.7,0.7,1,1.2
			c0.2,0.5,0.4,1,0.4,1.7c0,0.6-0.1,1.2-0.4,1.7c-0.2,0.5-0.6,1-1,1.4c-0.4,0.4-0.9,0.7-1.4,1s-1.1,0.3-1.8,0.3h-10.5
			c-0.7,0-1.3-0.1-1.9-0.5c-0.6-0.3-1.1-0.7-1.5-1.2c-0.4-0.5-0.7-1-1-1.6c-0.2-0.6-0.3-1.2-0.3-1.8h2.3c0,0.3,0.1,0.6,0.2,0.9
			c0.1,0.3,0.3,0.6,0.5,0.9s0.6,0.5,0.9,0.7s0.9,0.3,1.4,0.3h9.3c0.4,0,0.8-0.1,1.1-0.2c0.3-0.1,0.6-0.3,0.8-0.5
			c0.2-0.2,0.4-0.5,0.6-0.7c0.1-0.3,0.2-0.6,0.2-0.8c0-0.3-0.1-0.6-0.2-0.8c-0.1-0.2-0.3-0.3-0.5-0.4c-0.2-0.1-0.5-0.2-0.8-0.2
			c-0.3,0-0.7-0.1-1.1-0.1h-9.8c-0.6,0-1.2-0.1-1.8-0.2c-0.6-0.1-1.1-0.4-1.5-0.7c-0.4-0.3-0.8-0.7-1.1-1.2s-0.4-1.1-0.4-1.7
			c0-0.6,0.1-1.2,0.4-1.8c0.2-0.5,0.6-1,1-1.4s0.9-0.7,1.4-1c0.5-0.2,1.1-0.4,1.7-0.4h10.5c0.7,0,1.3,0.1,1.9,0.4
			c0.6,0.3,1.1,0.7,1.5,1.2s0.7,1,0.9,1.6c0.2,0.6,0.3,1.2,0.3,1.8H133.9z"/>
		<path class="st0" d="M142.2,10.4h18.1v2.3h-15.8v3.7h15.3v2.3h-15.3v3.7h15.8v2.3h-18.1V10.4z"/>
		<path class="st0" d="M185.5,10.4v2.3H177v12.1h-2.3V12.7h-8.4v-2.3H185.5z"/>
		<path class="st0" d="M191.5,10.4h18.1v2.3h-15.8v3.7h15.3v2.3h-15.3v3.7h15.8v2.3h-18.1V10.4z"/>
		<path class="st0" d="M232.9,15.8c0-0.4-0.1-0.8-0.2-1.2c-0.1-0.4-0.3-0.7-0.6-1c-0.3-0.3-0.6-0.5-0.9-0.7
			c-0.4-0.2-0.8-0.3-1.2-0.3H221c-0.4,0-0.8,0.1-1.2,0.2c-0.4,0.1-0.7,0.4-1,0.6c-0.3,0.3-0.5,0.6-0.7,1c-0.2,0.4-0.2,0.8-0.2,1.3
			v3.6c0,0.5,0.1,0.9,0.2,1.2c0.2,0.4,0.4,0.7,0.7,1c0.3,0.3,0.6,0.5,1,0.6c0.4,0.1,0.8,0.2,1.2,0.2h8.9c0.3,0,0.7-0.1,1-0.2
			s0.7-0.4,1-0.7c0.3-0.3,0.5-0.6,0.7-1c0.2-0.4,0.3-0.8,0.3-1.3h2.3v0.4c0,0.6-0.1,1.2-0.3,1.9s-0.5,1.2-1,1.6
			c-0.4,0.5-0.9,0.9-1.5,1.2c-0.6,0.3-1.2,0.5-1.9,0.5h-10.5c-0.6,0-1.2-0.1-1.7-0.3c-0.5-0.2-1-0.6-1.4-1c-0.4-0.4-0.7-0.9-1-1.4
			c-0.2-0.5-0.3-1.1-0.3-1.7v-5.4c0-0.6,0.1-1.2,0.3-1.8s0.6-1,1-1.4c0.4-0.4,0.9-0.7,1.4-1c0.5-0.2,1.1-0.4,1.7-0.4h10.5
			c0.7,0,1.3,0.1,1.9,0.4c0.6,0.3,1.1,0.7,1.5,1.2c0.4,0.5,0.7,1,1,1.6c0.2,0.6,0.3,1.2,0.3,1.8v0.4H232.9z"/>
		<path class="st0" d="M257.1,16.5v-6.1h2.3v14.4h-2.3v-6h-13.6v6h-2.3V10.4h2.3v6.1H257.1z"/>
	</g>
</g>
<g>
	<circle class="st1" cx="22.7" cy="8.3" r="3.8"/>
	<circle class="st1" cx="28" cy="17.5" r="3.8"/>
	<circle class="st1" cx="22.7" cy="27" r="3.8"/>
	<circle class="st1" cx="12" cy="27" r="3.8"/>
	<circle class="st1" cx="6.6" cy="17.5" r="3.8"/>
	<circle class="st1" cx="12" cy="8.6" r="3.8"/>
	<circle class="st1" cx="17.1" cy="2.6" r="1.6"/>
	<circle class="st1" cx="30.4" cy="10.2" r="1.6"/>
	<circle class="st1" cx="30.4" cy="25.2" r="1.6"/>
	<circle class="st1" cx="4.5" cy="25.2" r="1.6"/>
	<circle class="st1" cx="4.5" cy="10.2" r="1.6"/>
	<circle class="st1" cx="17.3" cy="32.4" r="1.6"/>
	<path class="st1" d="M21.5,14.7l-4.3,2.8l2.2-4.7c-2.6-1.2-5.7-0.1-6.9,2.5c-1.2,2.6-0.1,5.7,2.5,6.9c2.6,1.2,5.7,0.1,6.9-2.5
		C22.6,18,22.4,16.1,21.5,14.7z"/>
</g>
</svg>
